<svg width="32" height="32" viewBox="0 0 32 32" fill="none" xmlns="http://www.w3.org/2000/svg">
<path id="Exclude" fill-rule="evenodd" clip-rule="evenodd" d="M17.4793 30.1455L30.6389 14.6564C32.9442 17.5176 32.2866 22.5852 28.9284 26.5379C25.5701 30.4906 20.6753 31.9582 17.4793 30.1455ZM8.79918 26.5806L25.7187 6.66614C28.6827 10.3448 27.8373 16.8603 23.5195 21.9424C19.2017 27.0245 12.9084 28.9114 8.79918 26.5806ZM1.36118 16.4514L14.5208 0.96232C11.3248 -0.850534 6.42995 0.617071 3.07166 4.56983C-0.286636 8.52258 -0.944195 13.5902 1.36118 16.4514ZM6.28128 24.4414L23.2008 4.52691C19.0916 2.19621 12.7983 4.08314 8.48056 9.16521C4.16279 14.2473 3.31733 20.7627 6.28128 24.4414ZM1.13276 15.9971L15.5044 30.3687C12.4658 32.4347 7.46811 31.3686 3.80052 27.701C0.132932 24.0334 -0.933155 19.0357 1.13276 15.9971ZM5.38913 7.63458L23.8669 26.1124C19.9601 28.7685 13.5346 27.3978 8.81917 22.6823C4.10372 17.9669 2.73302 11.5414 5.38913 7.63458ZM16.0881 1.04185L30.4597 15.4135C32.5256 12.3748 31.4595 7.37723 27.7919 3.70967C24.1243 0.0421089 19.1267 -1.02399 16.0881 1.04185ZM7.72545 5.29821L26.2032 23.776C28.8593 19.8692 27.4886 13.4437 22.7732 8.72825C18.0578 4.01281 11.6323 2.64211 7.72545 5.29821Z" fill="#1ECF7A"/>
</svg>
