<?xml version="1.0" standalone="no"?>
<!DOCTYPE svg PUBLIC "-//W3C//DTD SVG 20010904//EN"
 "http://www.w3.org/TR/2001/REC-SVG-20010904/DTD/svg10.dtd">
<svg version="1.0" xmlns="http://www.w3.org/2000/svg"
 width="617.000000pt" height="702.000000pt" viewBox="0 0 617.000000 702.000000"
 preserveAspectRatio="xMidYMid meet">

<g transform="translate(0.000000,702.000000) scale(0.100000,-0.100000)"
fill="#000000" stroke="none">
<path d="M2613 6031 c-155 -4 -284 -8 -286 -11 -3 -3 -10 -77 -17 -165 -21
-301 -51 -452 -113 -569 -26 -50 -44 -67 -118 -116 -47 -33 -102 -78 -122
-101 -67 -78 -67 -78 -67 -616 l0 -483 -36 -15 c-34 -14 -60 -12 -50 4 3 4 -5
13 -17 20 -12 8 -19 10 -15 6 10 -11 -51 -55 -75 -55 -19 0 -19 -1 -3 -19 10
-11 15 -24 11 -30 -3 -6 0 -9 8 -5 8 3 17 -2 21 -11 3 -9 11 -13 16 -10 6 4 9
1 8 -6 -5 -21 17 -20 30 2 12 18 12 23 0 30 -10 7 -9 9 5 9 9 0 17 6 17 14 0
18 39 9 47 -10 3 -8 10 -14 15 -14 6 0 8 7 4 15 -3 8 -1 15 4 15 6 0 10 -11
10 -25 0 -29 -16 -32 -48 -9 -28 19 -39 13 -17 -10 15 -15 15 -16 -4 -16 -12
0 -30 -9 -41 -20 -24 -24 -25 -31 -5 -24 11 5 13 2 9 -10 -6 -16 -8 -15 -26 1
-17 15 -21 15 -30 3 -8 -12 -9 -11 -4 3 4 12 -2 25 -16 38 -30 24 -35 24 -52
-8 -8 -16 -15 -22 -16 -15 0 7 11 24 25 38 29 29 31 36 10 28 -11 -5 -15 1
-15 25 0 25 4 31 21 31 14 0 26 13 41 46 28 63 34 106 14 98 -13 -5 -29 21
-25 42 3 20 -2 34 -12 34 -5 0 -7 -5 -4 -11 9 -14 -3 -59 -15 -59 -6 0 -19 9
-29 19 -20 20 -20 20 -42 -15 -26 -43 -20 -86 17 -125 25 -26 20 -30 -16 -16
-8 3 -32 11 -52 17 -20 6 -42 17 -48 25 -7 8 -16 12 -21 9 -5 -3 -9 0 -9 6 0
6 -7 13 -16 17 -9 3 -32 21 -52 39 -20 18 -40 31 -44 28 -15 -9 -8 -33 15 -55
23 -23 4 -16 -25 9 -25 21 -22 1 3 -27 22 -23 19 -51 -4 -51 -22 0 -100 -89
-127 -145 -21 -43 -25 -63 -23 -140 0 -55 5 -91 12 -93 7 -2 9 -18 5 -43 -5
-27 -3 -39 5 -39 8 0 10 8 6 23 -5 19 -5 20 5 4 6 -9 15 -15 19 -13 4 3 8 -1
8 -9 0 -8 -4 -12 -8 -10 -11 8 -18 -49 -7 -65 7 -12 8 -11 4 5 -5 17 -3 16 13
-5 16 -20 17 -26 6 -28 -19 -4 -19 -23 -2 -47 10 -12 16 -14 21 -7 10 16 23
15 29 -2 4 -10 1 -13 -7 -10 -20 8 -25 -7 -13 -36 15 -37 18 -60 8 -60 -6 0
-13 5 -16 10 -3 6 -17 10 -30 10 -17 0 -23 4 -19 14 3 8 -2 16 -13 19 -10 3
-28 8 -40 12 -17 5 -22 3 -17 -8 4 -11 -1 -13 -22 -9 -19 3 -25 1 -20 -7 4 -6
12 -11 18 -11 16 0 87 -34 88 -42 0 -3 -9 -4 -20 -1 -12 3 -20 0 -20 -7 0 -9
-6 -8 -18 3 -10 10 -23 17 -29 17 -5 0 -22 11 -37 25 -15 14 -32 25 -39 26 -7
0 -3 4 8 9 16 7 17 9 3 9 -9 1 -19 -3 -23 -9 -3 -5 -12 -7 -20 -4 -7 3 -23 0
-35 -6 -39 -21 -56 -20 -58 4 -1 13 -6 34 -11 47 -9 21 -10 18 -11 -21 l-1
-45 -14 39 c-8 22 -12 43 -9 47 2 4 -5 5 -15 2 -18 -4 -19 -14 -17 -111 2 -84
-2 -118 -17 -159 -10 -29 -16 -57 -12 -63 3 -5 -1 -10 -9 -10 -11 0 -16 9 -16
26 0 34 -63 98 -89 91 -14 -3 -21 2 -25 19 -4 13 -11 24 -17 24 -6 0 -8 -4 -4
-9 3 -5 -2 -17 -11 -25 -8 -9 -11 -16 -5 -16 14 0 14 -47 0 -55 -15 -10 -70
15 -62 28 3 6 1 7 -5 3 -17 -10 -3 -36 19 -36 11 0 23 -8 26 -17 4 -10 11 -21
17 -25 7 -5 4 -8 -6 -8 -29 0 -20 -20 14 -34 62 -26 117 -30 138 -11 18 16 21
16 48 -3 42 -31 57 -51 45 -63 -13 -13 -45 0 -39 17 3 8 1 14 -5 14 -6 0 -9
-12 -7 -27 2 -15 -2 -28 -9 -30 -9 -3 -13 7 -13 31 0 19 -4 38 -10 41 -5 3
-10 3 -10 -2 0 -14 -58 -35 -87 -31 -20 2 -27 -1 -25 -11 3 -12 0 -12 -12 -1
-9 7 -16 8 -16 3 0 -6 -22 -8 -52 -5 -56 5 -58 -5 -5 -25 20 -7 25 -12 13 -12
-10 -1 -41 -19 -68 -41 -28 -22 -55 -40 -59 -40 -5 0 -9 -4 -9 -10 0 -20 27
-9 98 40 76 53 114 65 119 40 2 -9 -16 -26 -43 -43 -35 -21 -44 -31 -39 -46 3
-11 0 -23 -7 -28 -15 -9 -48 -58 -48 -70 0 -4 5 -1 10 7 7 11 10 12 10 2 0 -9
7 -11 21 -7 17 6 20 4 13 -6 -5 -8 -10 -23 -11 -34 l-4 -20 15 20 c7 11 16 29
19 40 3 11 3 0 0 -24 -4 -30 -2 -41 6 -37 6 4 11 18 11 32 0 14 4 22 10 19 6
-3 10 1 10 10 0 9 5 13 10 10 6 -3 10 3 10 14 0 12 5 21 10 21 6 0 10 5 10 11
0 5 -4 7 -10 4 -6 -4 -10 5 -10 21 l0 27 25 -23 c14 -13 25 -32 25 -42 0 -13
6 -18 18 -16 9 2 17 11 17 20 0 9 3 20 7 24 4 3 0 20 -8 36 -19 37 -10 71 17
63 12 -4 19 -2 19 6 0 10 3 10 12 1 19 -19 41 -14 67 14 13 14 30 23 38 20 7
-3 13 1 13 9 0 8 5 15 11 15 6 0 9 -7 5 -15 -3 -8 -1 -15 4 -15 6 0 10 -7 10
-15 0 -8 5 -15 11 -15 5 0 7 -4 4 -10 -9 -15 -25 -12 -25 4 0 19 -25 27 -39
13 -14 -14 -14 -30 1 -21 7 4 8 3 4 -4 -8 -14 31 -55 44 -47 6 4 10 -1 10 -9
0 -8 -4 -18 -10 -21 -16 -10 -12 -25 6 -25 10 0 14 -6 11 -14 -3 -8 0 -17 8
-19 15 -6 25 1 25 17 0 6 -5 4 -11 -4 -8 -12 -9 -12 -7 5 1 11 -1 26 -6 33
-10 16 8 37 23 28 6 -4 11 -15 11 -24 1 -28 23 -49 48 -46 14 3 22 -1 22 -10
0 -9 -11 -13 -33 -12 -28 1 -32 -2 -32 -24 0 -16 8 -29 23 -36 13 -6 19 -14
14 -18 -5 -3 -17 3 -27 14 -10 11 -29 20 -42 20 -20 0 -23 4 -18 20 3 11 2 20
-3 20 -5 0 -12 -9 -15 -20 -5 -21 -31 -27 -42 -10 -3 5 0 7 8 4 19 -7 28 8 16
26 -6 10 -9 11 -9 3 0 -7 -5 -13 -11 -13 -6 0 -9 7 -5 15 3 9 0 15 -8 15 -8 0
-21 3 -30 6 -9 3 -16 1 -16 -6 0 -6 4 -9 9 -6 10 6 25 -24 16 -32 -3 -3 -5 0
-5 6 0 7 -5 12 -11 12 -5 0 -8 -4 -5 -9 3 -5 -6 -21 -19 -35 -29 -31 -32 -41
-10 -32 9 3 15 0 15 -10 0 -11 -6 -15 -20 -11 -14 3 -24 -1 -31 -15 -7 -12
-18 -18 -29 -15 -15 4 -16 0 -10 -29 4 -18 16 -45 27 -61 33 -46 45 -73 33
-73 -5 0 -10 6 -10 13 0 7 -9 23 -20 35 -11 12 -20 26 -20 32 0 5 -5 10 -11
10 -7 0 -8 -7 -4 -17 4 -10 8 -26 10 -36 2 -9 7 -23 10 -30 4 -6 0 -3 -9 8 -8
11 -20 25 -26 32 -5 7 -10 17 -10 23 0 14 -9 13 -26 -5 -14 -14 -11 -19 9 -16
5 1 5 -3 2 -9 -7 -12 29 -48 81 -80 59 -38 166 -71 245 -77 56 -4 79 -10 79
-19 0 -9 -9 -12 -29 -8 -21 4 -30 2 -35 -11 -12 -31 4 -33 53 -7 27 15 47 30
45 34 -3 5 6 8 20 8 27 0 43 15 24 23 -7 3 3 3 23 0 21 -3 39 -1 43 6 12 19
36 12 36 -9 0 -17 3 -19 18 -11 13 7 22 7 30 -1 8 -8 16 -7 28 3 9 7 33 13 53
14 31 0 36 3 34 21 -2 17 2 20 21 17 13 -3 28 -13 32 -24 9 -18 11 -18 61 5
33 16 60 38 77 62 l26 38 -30 27 c-31 29 -28 40 18 53 12 4 22 14 22 23 0 9 6
13 15 9 10 -4 15 1 15 14 0 11 -4 20 -8 20 -5 0 -8 23 -8 50 1 35 -4 54 -14
60 -9 6 -10 10 -3 10 13 0 -1 53 -21 79 -8 11 -8 13 2 7 6 -4 12 -3 12 3 0 5
-4 13 -10 16 -5 3 -10 14 -10 24 0 24 -46 127 -60 136 -6 3 -8 10 -5 15 3 4
-2 11 -11 14 -8 3 -12 10 -9 16 3 5 -1 20 -9 32 -9 12 -16 25 -16 28 0 3 23 6
51 7 64 4 167 51 226 106 l43 40 0 -332 0 -331 50 0 c53 0 112 -19 142 -47 21
-19 33 -11 33 22 1 17 -2 21 -11 14 -15 -12 -29 20 -15 34 7 7 5 15 -7 24 -16
12 -16 13 1 7 16 -6 17 -4 9 12 -18 35 -31 85 -26 99 3 7 0 16 -6 20 -9 6 -9
9 0 15 9 5 9 13 2 26 -5 11 -9 40 -7 67 2 26 1 47 -3 47 -10 0 -8 223 2 239 5
7 5 16 0 20 -5 3 -9 33 -9 66 0 33 -2 97 -5 142 -3 51 -1 85 5 87 6 3 6 5 -1
5 -6 1 -9 41 -8 116 1 63 -2 118 -7 121 -5 3 -7 10 -3 15 3 6 6 63 6 127 0 76
4 120 12 124 8 6 7 8 -1 8 -7 0 -13 5 -13 11 0 5 6 7 13 3 9 -6 9 -4 1 7 -7 9
-12 121 -13 334 -3 413 -7 550 -15 563 -10 16 37 17 614 16 578 -2 574 -2 599
44 8 16 4 23 -31 42 -40 23 -42 23 -412 21 -385 -2 -523 6 -616 34 -48 15 -52
18 -35 28 21 12 427 24 862 26 217 1 232 0 237 -17 4 -11 18 -30 33 -43 l27
-24 -27 33 c-15 19 -27 38 -27 43 0 5 24 9 54 9 29 0 68 3 85 6 25 5 29 9 20
20 -8 10 -8 14 0 14 6 0 10 3 10 8 -4 21 3 32 19 32 15 0 15 -2 2 -11 -11 -8
-9 -9 10 -3 14 4 28 12 32 18 4 7 9 4 14 -7 5 -13 10 -15 20 -7 15 13 7 43
-10 33 -6 -3 2 6 18 21 15 15 26 29 23 32 -3 3 -102 5 -221 4 -134 0 -224 4
-236 10 -14 8 -19 20 -18 43 0 18 -11 75 -26 127 -19 67 -31 148 -42 275 -8
99 -18 214 -22 255 l-7 75 -35 1 c-19 0 -162 -2 -317 -5z m340 -673 c15 -23
-8 -48 -44 -48 -34 0 -34 1 -13 41 16 32 40 35 57 7z m-117 -24 c19 -20 34
-38 34 -40 0 -1 -30 -14 -67 -27 -38 -14 -95 -35 -128 -48 -74 -27 -295 -40
-346 -19 -16 7 -26 16 -22 20 9 8 228 77 259 82 11 2 33 -5 48 -15 27 -18 28
-18 45 0 10 10 20 25 23 33 2 8 29 22 59 31 30 9 55 17 57 18 2 1 19 -15 38
-35z m127 -151 c-7 -2 -19 -2 -25 0 -7 3 -2 5 12 5 14 0 19 -2 13 -5z m271
-68 c5 -22 4 -26 -4 -15 -5 8 -10 24 -10 34 0 26 6 18 14 -19z m-1749 -1175
c-3 -5 0 -10 7 -11 7 0 2 -5 -11 -10 -31 -12 -42 -1 -17 17 23 17 30 18 21 4z
m-55 -10 c0 -5 -10 -10 -22 -10 -19 0 -20 2 -8 10 19 13 30 13 30 0z m120 -9
c0 -12 -29 -35 -36 -28 -11 10 5 37 21 37 8 0 15 -4 15 -9z m-57 -26 c-3 -9
-8 -14 -10 -11 -3 3 -2 9 2 15 9 16 15 13 8 -4z m-35 -24 c-13 -22 -38 -25
-45 -6 -2 6 7 11 19 12 13 1 24 7 26 13 2 6 6 9 9 7 2 -3 -2 -15 -9 -26z m-96
-23 c-7 -7 -12 -8 -12 -2 0 14 12 26 19 19 2 -3 -1 -11 -7 -17z m138 4 c-14
-2 -32 -13 -39 -25 -14 -21 -13 -21 12 -4 24 15 26 15 20 1 -5 -13 -3 -15 13
-6 40 20 94 -4 93 -42 0 -21 0 -21 -9 1 -6 14 -15 21 -24 17 -15 -6 -11 -34 5
-34 5 0 9 -4 9 -9 0 -6 -9 -9 -20 -8 -14 1 -19 6 -15 17 4 8 -3 5 -15 -7 -28
-31 -31 -29 -15 11 14 32 12 46 -7 46 -5 0 -6 -5 -3 -10 4 -6 1 -9 -6 -8 -7 2
-17 -10 -23 -25 -8 -22 -7 -30 4 -37 13 -8 12 -10 -2 -10 -28 0 -33 39 -8 65
l22 24 -31 -1 c-19 -1 -39 6 -49 17 -14 15 -15 17 -1 12 8 -3 33 3 54 13 22
10 44 15 50 12 5 -4 -1 -8 -15 -10z m127 -15 c4 -21 3 -21 -11 -2 -8 11 -12
24 -9 28 7 12 16 0 20 -26z m261 -27 c-1 -30 -6 -40 -17 -38 -8 2 -13 8 -12
13 2 6 7 9 13 7 6 -1 7 9 3 28 -4 19 -3 30 5 30 6 0 10 -16 8 -40z m-203 21
c3 -5 1 -12 -5 -16 -5 -3 -10 1 -10 9 0 18 6 21 15 7z m145 -3 c0 -4 -7 -8
-15 -8 -8 0 -15 4 -15 8 0 5 7 9 15 9 8 0 15 -4 15 -9z m-489 -21 c-10 -9 -11
-8 -5 6 3 10 9 15 12 12 3 -3 0 -11 -7 -18z m70 -10 c-6 -6 -11 -22 -12 -36 0
-26 0 -26 -9 -3 -5 12 -17 22 -25 22 -14 0 -14 2 -3 13 17 17 40 26 51 20 5
-3 4 -10 -2 -16z m417 -9 c5 -7 9 -26 7 -43 -1 -16 -3 -46 -4 -65 l-2 -35 -14
25 -13 25 -7 -28 c-4 -15 -10 -26 -12 -23 -3 2 4 29 15 59 12 30 18 58 14 62
-4 5 -1 5 6 1 6 -4 12 -2 12 3 0 10 -14 15 -33 12 -5 -1 -6 3 -2 9 8 14 20 13
33 -2z m-144 -14 c7 -19 -2 -37 -15 -29 -12 8 -12 45 0 45 5 0 12 -7 15 -16z
m37 -7 c12 -26 -3 -77 -23 -77 -9 0 -9 3 0 12 14 14 16 68 2 68 -5 0 -10 5
-10 10 0 19 20 10 31 -13z m29 7 c0 -8 -5 -12 -10 -9 -6 4 -8 11 -5 16 9 14
15 11 15 -7z m-240 -4 c0 -5 -5 -10 -11 -10 -5 0 -7 5 -4 10 3 6 8 10 11 10 2
0 4 -4 4 -10z m256 -26 c-4 -9 -9 -15 -11 -12 -3 3 -3 13 1 22 4 9 9 15 11 12
3 -3 3 -13 -1 -22z m-176 -19 c-7 -8 -16 -15 -21 -15 -5 0 -1 8 9 18 20 22 31
19 12 -3z m284 19 c9 -3 16 -13 16 -21 0 -10 -6 -13 -16 -9 -9 3 -18 6 -20 6
-2 0 -4 7 -4 15 0 17 2 18 24 9z m-234 -30 c0 -9 5 -12 13 -8 8 5 8 2 -2 -9
-14 -18 -26 -23 -16 -8 3 5 1 12 -5 16 -5 3 -10 1 -10 -6 0 -7 -2 -10 -5 -7
-8 7 5 38 16 38 5 0 9 -7 9 -16z m-319 -21 c-12 -20 -14 -14 -5 12 4 9 9 14
11 11 3 -2 0 -13 -6 -23z m196 -15 c-3 -8 -6 -5 -6 6 -1 11 2 17 5 13 3 -3 4
-12 1 -19z m363 -32 c0 -11 -19 -15 -25 -6 -3 5 1 10 9 10 9 0 16 -2 16 -4z
m-200 -13 c0 -5 -5 -15 -10 -23 -8 -12 -10 -11 -10 8 0 12 5 22 10 22 6 0 10
-3 10 -7z m-158 -65 c-7 -7 -12 -8 -12 -2 0 14 12 26 19 19 2 -3 -1 -11 -7
-17z m118 1 c0 -6 -4 -7 -10 -4 -5 3 -10 11 -10 16 0 6 5 7 10 4 6 -3 10 -11
10 -16z m-173 -41 c-3 -8 -6 -5 -6 6 -1 11 2 17 5 13 3 -3 4 -12 1 -19z m-137
-20 c0 -5 -7 -3 -15 6 -8 8 -15 18 -15 22 0 3 7 1 15 -6 8 -7 15 -17 15 -22z
m250 22 c0 -5 -4 -10 -10 -10 -5 0 -10 5 -10 10 0 6 5 10 10 10 6 0 10 -4 10
-10z m120 -26 c0 -8 -5 -12 -10 -9 -6 4 -8 11 -5 16 9 14 15 11 15 -7z m-413
-56 c-3 -8 -6 -5 -6 6 -1 11 2 17 5 13 3 -3 4 -12 1 -19z m465 -10 c-7 -7 -12
-8 -12 -2 0 14 12 26 19 19 2 -3 -1 -11 -7 -17z m-432 -13 c11 -13 10 -14 -4
-9 -9 3 -16 10 -16 15 0 13 6 11 20 -6z m240 11 c0 -3 -4 -8 -10 -11 -5 -3
-10 -1 -10 4 0 6 5 11 10 11 6 0 10 -2 10 -4z m120 -30 c0 -3 -4 -8 -10 -11
-5 -3 -10 -1 -10 4 0 6 5 11 10 11 6 0 10 -2 10 -4z m-70 -20 c0 -3 -4 -8 -10
-11 -5 -3 -10 -1 -10 4 0 6 5 11 10 11 6 0 10 -2 10 -4z m182 -43 c-6 -3 -9
-10 -5 -16 4 -7 -1 -6 -10 2 -18 14 -23 26 -8 16 5 -3 13 0 16 6 4 5 10 7 14
3 3 -4 0 -9 -7 -11z m-295 -15 c-3 -8 -6 -5 -6 6 -1 11 2 17 5 13 3 -3 4 -12
1 -19z m118 2 c-3 -5 -12 -10 -18 -10 -7 0 -6 4 3 10 19 12 23 12 15 0z m-65
-27 c0 -15 -2 -16 -10 -3 -9 13 -11 13 -20 0 -5 -8 -10 -10 -10 -4 0 14 10 24
27 24 7 0 13 -8 13 -17z m-510 -7 c0 -2 -7 -7 -16 -10 -8 -3 -12 -2 -9 4 6 10
25 14 25 6z m583 -16 c-3 -11 -9 -17 -15 -14 -5 3 -4 12 3 20 16 19 18 18 12
-6z m102 10 c-3 -5 -12 -10 -18 -10 -7 0 -6 4 3 10 19 12 23 12 15 0z m-495
-9 c0 -5 -9 -7 -20 -4 -11 3 -20 7 -20 9 0 2 9 4 20 4 11 0 20 -4 20 -9z m648
-16 c-3 -3 -9 2 -12 12 -6 14 -5 15 5 6 7 -7 10 -15 7 -18z m-788 -1 c0 -2 -9
-4 -21 -4 -11 0 -18 4 -14 10 5 8 35 3 35 -6z m289 -4 c23 -12 44 -27 47 -35
3 -8 15 -17 26 -21 20 -6 83 -70 83 -85 0 -4 3 -11 8 -15 16 -16 6 -23 -12 -7
-11 9 -17 23 -13 31 3 10 1 13 -6 8 -7 -4 -17 -4 -23 0 -8 5 -8 9 1 14 8 5 -8
18 -44 35 -52 25 -78 45 -40 31 14 -5 15 -4 4 9 -7 9 -18 14 -24 12 -6 -3 -19
0 -28 5 -11 5 -18 5 -18 -1 0 -11 28 -41 38 -41 4 0 7 -14 7 -31 0 -25 -2 -28
-10 -13 -30 51 -75 72 -75 34 0 -19 -1 -20 -25 -4 -18 12 -22 20 -16 32 10 17
41 26 41 11 0 -5 7 -9 16 -9 10 0 14 6 11 15 -4 8 -2 17 4 20 5 4 7 11 4 16
-8 13 -4 12 44 -11z m311 15 c0 -2 -6 -8 -13 -14 -10 -8 -14 -7 -14 2 0 8 6
14 14 14 7 0 13 -1 13 -2z m-686 -60 c-7 -16 -24 -21 -24 -6 0 8 7 13 27 20 1
1 0 -6 -3 -14z m141 5 c3 -5 -1 -10 -9 -10 -9 0 -16 5 -16 10 0 6 4 10 9 10 6
0 13 -4 16 -10z m90 0 c3 -5 -1 -10 -9 -10 -9 0 -16 5 -16 10 0 6 4 10 9 10 6
0 13 -4 16 -10z m-149 -29 c-4 -5 -1 -11 6 -13 8 -3 6 -6 -4 -10 -11 -5 -18 0
-21 13 -3 12 0 19 10 19 8 0 12 -4 9 -9z m-111 -21 c-3 -5 -13 -10 -21 -10 -8
0 -12 5 -9 10 3 6 13 10 21 10 8 0 12 -4 9 -10z m370 -16 c19 -14 19 -15 -10
-10 -16 2 -31 5 -33 5 -6 2 9 21 16 21 4 0 16 -8 27 -16z m95 6 c0 -5 -2 -10
-4 -10 -3 0 -8 5 -11 10 -3 6 -1 10 4 10 6 0 11 -4 11 -10z m-390 -10 c0 -5
10 -10 21 -10 18 0 20 -2 9 -15 -18 -22 -43 -15 -45 13 -1 12 2 22 7 22 4 0 8
-4 8 -10z m203 3 c-7 -2 -19 -2 -25 0 -7 3 -2 5 12 5 14 0 19 -2 13 -5z m-297
-20 c-2 -10 -17 -26 -34 -36 -42 -25 -41 -12 1 13 17 11 26 20 19 20 -7 0 -10
5 -7 10 10 16 23 11 21 -7z m59 -33 c3 -5 -3 -10 -13 -10 -11 0 -25 -7 -32
-15 -16 -19 -30 -19 -30 0 0 27 61 47 75 25z m95 0 c0 -5 -8 -10 -17 -10 -15
0 -16 2 -3 10 19 12 20 12 20 0z m95 0 c3 -5 -1 -10 -9 -10 -9 0 -16 5 -16 10
0 6 4 10 9 10 6 0 13 -4 16 -10z m125 -16 c0 -14 -3 -14 -15 -4 -8 7 -15 14
-15 16 0 2 7 4 15 4 8 0 15 -7 15 -16z m75 6 c3 -5 1 -10 -4 -10 -6 0 -11 5
-11 10 0 6 2 10 4 10 3 0 8 -4 11 -10z m93 -18 c2 -7 -2 -10 -12 -6 -9 3 -16
11 -16 16 0 13 23 5 28 -10z m-470 -11 c-2 -9 -12 -16 -22 -16 -11 0 -20 7
-21 16 -2 11 5 17 22 17 17 0 23 -5 21 -17z m51 -36 c17 -10 3 -25 -22 -24
-17 1 -18 2 -4 6 9 2 17 8 17 13 0 14 -43 -5 -54 -23 -15 -23 4 -51 36 -55 21
-3 24 -7 20 -28 -4 -22 -13 -28 -34 -25 -4 0 -5 -6 -2 -14 4 -9 0 -15 -10 -15
-25 0 -19 29 7 35 43 11 26 42 -20 36 -11 -2 -15 7 -27 62 -5 22 -3 27 13 27
33 0 51 11 52 34 l0 21 9 -21 c5 -12 13 -25 19 -29z m46 25 c3 -5 2 -10 -4
-10 -5 0 -13 5 -16 10 -3 6 -2 10 4 10 5 0 13 -4 16 -10z m50 0 c3 -5 -1 -10
-10 -10 -9 0 -13 5 -10 10 3 6 8 10 10 10 2 0 7 -4 10 -10z m80 -40 c3 -5 -1
-10 -10 -10 -9 0 -13 5 -10 10 3 6 8 10 10 10 2 0 7 -4 10 -10z m180 0 c3 -5
-1 -10 -9 -10 -9 0 -16 5 -16 10 0 6 4 10 9 10 6 0 13 -4 16 -10z m-464 -28
l9 -23 -27 21 c-18 14 -35 19 -51 15 -16 -4 -21 -2 -17 5 4 6 23 10 42 8 27
-2 38 -9 44 -26z m389 18 c0 -5 -7 -7 -15 -4 -8 4 -15 8 -15 10 0 2 7 4 15 4
8 0 15 -4 15 -10z m200 -21 c0 -6 -4 -7 -10 -4 -5 3 -10 11 -10 16 0 6 5 7 10
4 6 -3 10 -11 10 -16z m-355 1 c3 -5 1 -10 -4 -10 -6 0 -11 5 -11 10 0 6 2 10
4 10 3 0 8 -4 11 -10z m-255 -10 c0 -5 -4 -10 -9 -10 -6 0 -13 5 -16 10 -3 6
1 10 9 10 9 0 16 -4 16 -10z m125 0 c3 -5 -1 -10 -9 -10 -9 0 -16 5 -16 10 0
6 4 10 9 10 6 0 13 -4 16 -10z m35 -16 c0 -22 -16 -17 -17 6 -1 11 2 18 8 15
5 -4 9 -13 9 -21z m95 -12 c-3 -3 -11 0 -18 7 -9 10 -8 11 6 5 10 -3 15 -9 12
-12z m285 -12 c0 -5 -2 -10 -4 -10 -3 0 -8 5 -11 10 -3 6 -1 10 4 10 6 0 11
-4 11 -10z m-165 -10 c3 -5 -1 -10 -10 -10 -9 0 -13 5 -10 10 3 6 8 10 10 10
2 0 7 -4 10 -10z m-320 -10 c-3 -5 -11 -10 -16 -10 -6 0 -7 5 -4 10 3 6 11 10
16 10 6 0 7 -4 4 -10z m420 0 c3 -5 -1 -10 -9 -10 -9 0 -16 5 -16 10 0 6 4 10
9 10 6 0 13 -4 16 -10z m-290 -20 c3 -5 -1 -10 -9 -10 -9 0 -16 5 -16 10 0 6
4 10 9 10 6 0 13 -4 16 -10z m-395 -10 c0 -5 -2 -10 -4 -10 -3 0 -8 5 -11 10
-3 6 -1 10 4 10 6 0 11 -4 11 -10z m440 0 c0 -5 -2 -10 -4 -10 -3 0 -8 5 -11
10 -3 6 -1 10 4 10 6 0 11 -4 11 -10z m85 -20 c3 -5 -1 -10 -9 -10 -9 0 -16 5
-16 10 0 6 4 10 9 10 6 0 13 -4 16 -10z m315 -10 c0 -5 -4 -10 -10 -10 -5 0
-10 5 -10 10 0 6 5 10 10 10 6 0 10 -4 10 -10z m-806 -78 c10 -16 3 -24 -15
-17 -25 9 -40 54 -26 76 11 18 13 18 22 -13 6 -18 14 -39 19 -46z m278 61 c-7
-3 -19 -11 -27 -20 -9 -9 -15 -10 -15 -3 0 6 -4 8 -10 5 -5 -3 -10 2 -10 11 0
10 3 15 6 12 3 -3 17 -3 32 2 27 7 48 1 24 -7z m158 -20 c0 -13 -3 -13 -15 -3
-8 7 -15 16 -15 21 0 5 7 6 15 3 8 -4 15 -13 15 -21z m175 7 c3 -5 -1 -10 -9
-10 -8 0 -18 5 -21 10 -3 6 1 10 9 10 8 0 18 -4 21 -10z m70 0 c3 -5 1 -10 -4
-10 -6 0 -11 5 -11 10 0 6 2 10 4 10 3 0 8 -4 11 -10z m-270 -21 c-3 -4 -12
-6 -20 -3 -8 4 -13 10 -10 15 3 4 12 6 20 3 8 -4 13 -10 10 -15z m-135 1 c0
-5 -5 -10 -11 -10 -5 0 -7 5 -4 10 3 6 8 10 11 10 2 0 4 -4 4 -10z m61 -7 c13
-15 12 -15 -8 -4 -24 12 -29 21 -14 21 5 0 15 -7 22 -17z m556 -15 c-3 -8 -6
-5 -6 6 -1 11 2 17 5 13 3 -3 4 -12 1 -19z m-562 -18 c3 -5 -1 -10 -9 -10 -9
0 -16 5 -16 10 0 6 4 10 9 10 6 0 13 -4 16 -10z m455 -10 c0 -5 -7 -7 -15 -4
-8 4 -15 8 -15 10 0 2 7 4 15 4 8 0 15 -4 15 -10z m-145 -10 c3 -5 2 -10 -4
-10 -5 0 -13 5 -16 10 -3 6 -2 10 4 10 5 0 13 -4 16 -10z m-155 -20 c0 -5 -4
-10 -9 -10 -6 0 -13 5 -16 10 -3 6 1 10 9 10 9 0 16 -4 16 -10z m240 0 c0 -5
-4 -10 -9 -10 -6 0 -13 5 -16 10 -3 6 1 10 9 10 9 0 16 -4 16 -10z m137 -46
c-9 -9 -28 6 -21 18 4 6 10 6 17 -1 6 -6 8 -13 4 -17z m-447 6 c0 -5 -7 -10
-15 -10 -8 0 -15 5 -15 10 0 6 7 10 15 10 8 0 15 -4 15 -10z m380 0 c0 -5 -2
-10 -4 -10 -3 0 -8 5 -11 10 -3 6 -1 10 4 10 6 0 11 -4 11 -10z m-480 -15 c11
-13 10 -14 -4 -9 -9 3 -16 10 -16 15 0 13 6 11 20 -6z m117 -7 c-3 -8 -6 -5
-6 6 -1 11 2 17 5 13 3 -3 4 -12 1 -19z m-96 -21 c-10 -9 -11 -8 -5 6 3 10 9
15 12 12 3 -3 0 -11 -7 -18z m194 13 c3 -5 1 -10 -4 -10 -6 0 -11 5 -11 10 0
6 2 10 4 10 3 0 8 -4 11 -10z m-365 -46 c0 -8 5 -14 12 -14 6 0 9 -2 6 -5 -11
-11 -38 8 -38 27 0 10 5 16 10 13 6 -3 10 -13 10 -21z m98 7 c3 -8 -1 -12 -9
-9 -7 2 -15 10 -17 17 -3 8 1 12 9 9 7 -2 15 -10 17 -17z m357 9 c3 -5 2 -10
-4 -10 -5 0 -13 5 -16 10 -3 6 -2 10 4 10 5 0 13 -4 16 -10z m-495 -21 c0 -6
-4 -7 -10 -4 -5 3 -10 11 -10 16 0 6 5 7 10 4 6 -3 10 -11 10 -16z m119 -16
c2 -2 -3 -3 -12 -3 -9 0 -22 10 -28 23 l-12 22 24 -20 c13 -11 26 -21 28 -22z
m231 27 c0 -5 -4 -10 -9 -10 -6 0 -13 5 -16 10 -3 6 1 10 9 10 9 0 16 -4 16
-10z m210 -10 c0 -5 -5 -10 -11 -10 -5 0 -7 5 -4 10 3 6 8 10 11 10 2 0 4 -4
4 -10z m-296 -26 c4 -11 2 -12 -14 -1 -11 6 -20 15 -20 19 0 12 28 -3 34 -18z
m230 1 c-4 -8 -8 -15 -10 -15 -2 0 -4 7 -4 15 0 8 4 15 10 15 5 0 7 -7 4 -15z
m-547 -17 c-3 -8 -6 -5 -6 6 -1 11 2 17 5 13 3 -3 4 -12 1 -19z m43 -3 c7 -9
10 -18 7 -22 -8 -7 -37 15 -37 28 0 14 16 11 30 -6z m180 -16 c0 -11 -7 -19
-17 -19 -16 0 -16 2 -3 11 11 8 12 12 2 16 -6 2 -10 9 -6 14 8 14 24 0 24 -22z
m420 5 c0 -2 -9 0 -20 6 -11 6 -20 13 -20 16 0 2 9 0 20 -6 11 -6 20 -13 20
-16z m-507 -4 c9 -11 13 -20 9 -20 -10 1 -42 26 -42 34 0 12 16 6 33 -14z
m284 14 c-3 -3 -12 -4 -19 -1 -8 3 -5 6 6 6 11 1 17 -2 13 -5z m-421 -49 c1
-8 -2 -15 -7 -15 -5 0 -9 5 -9 10 0 6 -7 10 -15 10 -18 0 -20 17 -2 23 15 5
30 -7 33 -28z m114 15 c0 -5 -2 -10 -4 -10 -3 0 -8 5 -11 10 -3 6 -1 10 4 10
6 0 11 -4 11 -10z m225 0 c3 -5 2 -10 -4 -10 -5 0 -13 5 -16 10 -3 6 -2 10 4
10 5 0 13 -4 16 -10z m262 4 c-3 -3 -12 -4 -19 -1 -8 3 -5 6 6 6 11 1 17 -2
13 -5z m-429 -47 c8 -10 6 -13 -9 -13 -10 0 -19 6 -19 13 0 7 4 13 9 13 5 0
13 -6 19 -13z m-60 -16 c3 -8 -1 -12 -9 -9 -7 2 -15 10 -17 17 -3 8 1 12 9 9
7 -2 15 -10 17 -17z m247 9 c3 -5 -1 -10 -9 -10 -9 0 -16 5 -16 10 0 6 4 10 9
10 6 0 13 -4 16 -10z m400 0 c3 -5 2 -10 -4 -10 -5 0 -13 5 -16 10 -3 6 -2 10
4 10 5 0 13 -4 16 -10z m-728 -19 c11 -17 10 -20 -7 -18 -12 1 -20 9 -20 19 0
24 12 23 27 -1z m252 -15 c10 -12 8 -13 -8 -9 -12 3 -21 9 -21 14 0 14 16 11
29 -5z m136 4 c3 -5 -1 -10 -9 -10 -9 0 -16 5 -16 10 0 6 4 10 9 10 6 0 13 -4
16 -10z m145 -10 c0 -5 -2 -10 -4 -10 -3 0 -8 5 -11 10 -3 6 -1 10 4 10 6 0
11 -4 11 -10z m-80 -10 c0 -5 -7 -7 -15 -4 -8 4 -15 8 -15 10 0 2 7 4 15 4 8
0 15 -4 15 -10z m265 0 c3 -5 -1 -10 -9 -10 -8 0 -18 5 -21 10 -3 6 1 10 9 10
8 0 18 -4 21 -10z m-610 -10 c3 -5 2 -10 -4 -10 -5 0 -13 5 -16 10 -3 6 -2 10
4 10 5 0 13 -4 16 -10z m275 -30 c0 -5 -4 -10 -9 -10 -6 0 -13 5 -16 10 -3 6
1 10 9 10 9 0 16 -4 16 -10z m-150 -4 c0 -11 -19 -15 -25 -6 -3 5 1 10 9 10 9
0 16 -2 16 -4z m-90 -16 c0 -5 -2 -10 -4 -10 -3 0 -8 5 -11 10 -3 6 -1 10 4
10 6 0 11 -4 11 -10z m547 4 c-3 -3 -12 -4 -19 -1 -8 3 -5 6 6 6 11 1 17 -2
13 -5z m-350 -40 c-3 -3 -12 -4 -19 -1 -8 3 -5 6 6 6 11 1 17 -2 13 -5z"/>
<path d="M3997 5492 c-17 -19 -14 -28 18 -52 19 -14 19 -14 5 4 -14 18 -13 18
8 12 32 -10 27 8 -5 22 l-28 12 28 -5 c29 -6 38 9 11 19 -21 8 -19 9 -37 -12z"/>
<path d="M4102 5479 c2 -7 14 -14 27 -16 15 -2 21 1 19 9 -3 7 -15 15 -27 16
-15 3 -22 -1 -19 -9z"/>
<path d="M3907 5473 c-9 -9 -9 -33 1 -33 4 0 13 9 20 20 10 16 10 20 -1 20 -8
0 -17 -3 -20 -7z"/>
<path d="M4190 5445 c7 -8 19 -15 27 -15 13 0 13 3 3 15 -7 8 -19 15 -27 15
-13 0 -13 -3 -3 -15z"/>
<path d="M3840 5418 c0 -14 6 -33 14 -43 7 -10 11 -26 9 -34 -3 -11 3 -16 21
-16 13 0 22 3 19 8 -2 4 -10 7 -18 7 -8 0 -11 7 -8 20 3 11 9 18 13 15 4 -3
13 2 19 9 9 11 9 16 0 21 -8 6 -8 10 2 16 8 5 2 7 -17 7 -17 -1 -36 2 -43 6
-7 5 -11 -1 -11 -16z"/>
<path d="M4225 5419 c-11 -4 -14 -8 -7 -8 8 -1 10 -6 6 -13 -4 -7 1 -5 11 4
22 21 18 29 -10 17z"/>
<path d="M3955 5390 c-3 -5 -1 -10 4 -10 6 0 11 5 11 10 0 6 -2 10 -4 10 -3 0
-8 -4 -11 -10z"/>
<path d="M4187 5389 c7 -7 15 -10 18 -7 3 3 -2 9 -12 12 -14 6 -15 5 -6 -5z"/>
<path d="M4241 5385 c-22 -12 -22 -13 -5 -24 18 -10 17 -10 -4 -11 -13 0 -20
-4 -17 -10 3 -5 -1 -10 -9 -10 -9 0 -16 -8 -16 -19 0 -28 -40 -32 -67 -7 -20
17 -23 18 -23 3 0 -9 5 -17 10 -17 6 0 10 -5 10 -11 0 -6 -9 -8 -20 -4 -22 7
-27 -10 -9 -35 9 -13 10 -12 5 3 -3 11 0 17 10 17 9 0 13 -5 9 -12 -4 -7 0 -5
8 4 12 16 14 14 12 -20 -1 -30 -5 -37 -20 -37 -11 0 -25 6 -31 14 -9 11 -11
11 -11 -2 0 -9 13 -21 28 -27 24 -10 32 -9 58 11 24 18 34 20 43 11 7 -7 20
-12 31 -12 10 0 15 -5 12 -10 -4 -6 -11 -8 -16 -4 -5 3 -16 0 -24 -6 -8 -7
-22 -9 -31 -6 -12 4 -15 2 -11 -9 10 -24 -13 -29 -36 -7 -34 32 -59 32 -68 0
-6 -24 -4 -28 12 -28 23 0 41 -39 27 -57 -5 -6 -11 -26 -13 -43 -4 -27 -2 -30
15 -25 20 6 25 -7 22 -55 -1 -25 18 -50 40 -50 16 0 116 41 137 56 4 4 -62 87
-108 136 -19 21 -31 41 -27 45 4 4 12 -1 18 -11 6 -10 18 -26 28 -36 40 -40
101 -130 95 -140 -3 -5 -1 -10 5 -10 26 0 -3 -18 -38 -24 -22 -3 -45 -12 -51
-20 -6 -7 -24 -16 -40 -19 -22 -5 -28 -12 -28 -31 0 -14 8 -33 18 -42 11 -9
19 -26 19 -38 0 -11 12 -30 28 -43 26 -22 26 -22 5 -23 -29 0 -29 -11 2 -48
13 -16 22 -32 19 -35 -10 -10 19 -121 38 -149 10 -15 28 -30 40 -34 20 -6 20
-8 5 -19 -15 -11 -15 -14 0 -34 14 -21 14 -24 -5 -43 -17 -17 -23 -18 -43 -8
-13 7 -27 18 -31 24 -6 8 -8 7 -8 -1 0 -6 5 -15 10 -18 6 -4 10 -14 9 -23 -3
-31 1 -43 11 -37 6 4 7 -2 1 -17 -4 -13 -18 -24 -30 -26 -11 -2 -21 -7 -21
-12 0 -5 -7 -7 -15 -4 -8 4 -17 -1 -21 -10 -10 -26 -51 -19 -83 15 -16 17 -32
30 -35 30 -19 -3 -25 2 -36 29 -8 18 -20 30 -31 30 -11 0 -24 11 -31 25 -6 14
-17 25 -24 25 -6 0 -29 15 -49 33 -20 17 -40 32 -43 32 -18 1 -52 27 -52 40 0
14 -18 20 -47 16 -7 -1 -13 7 -13 17 0 25 -25 46 -45 39 -8 -4 -21 1 -30 9
-13 13 -18 14 -31 4 -18 -16 -28 -7 -29 28 0 22 -5 27 -25 28 -50 1 -75 6 -62
11 6 2 12 10 12 17 0 14 -50 64 -50 50 -1 -23 -30 33 -30 58 0 15 -4 28 -10
28 -5 0 -10 10 -9 23 0 12 3 16 6 10 6 -16 21 -1 43 40 16 33 65 77 84 77 7 0
23 11 35 24 l23 25 -36 66 c-20 36 -46 76 -57 88 l-21 22 7 -25 c7 -20 5 -23
-6 -14 -31 24 -46 23 -43 -3 1 -14 9 -30 16 -34 9 -6 3 -9 -17 -9 -24 0 -27 2
-15 11 12 8 9 10 -13 6 -15 -2 -30 0 -33 4 -3 5 -9 9 -14 9 -12 0 0 -32 14
-42 8 -5 7 -8 -1 -8 -10 0 -10 -6 -1 -25 14 -31 80 -75 113 -75 14 0 25 -3 25
-7 -1 -13 -108 -63 -135 -63 -14 0 -25 -3 -25 -7 0 -5 -19 -7 -42 -6 -76 2
-148 -9 -148 -23 0 -10 -13 -14 -38 -14 -28 0 -39 -4 -39 -15 0 -11 6 -14 16
-9 50 20 74 22 109 9 l37 -14 -38 0 c-23 -1 -36 -5 -32 -11 4 -6 29 -9 58 -6
29 2 44 2 35 -1 -10 -2 -18 -8 -18 -12 0 -4 -10 -12 -22 -18 -13 -6 -31 -26
-41 -44 l-19 -34 27 33 c21 26 85 71 85 60 0 -2 -7 -21 -15 -43 -8 -22 -14
-53 -13 -70 l0 -30 7 30 6 30 14 -32 c7 -18 20 -33 27 -33 8 0 14 -4 14 -10 0
-5 14 -25 30 -44 17 -18 37 -50 45 -69 8 -20 19 -39 25 -42 16 -10 1 -25 -17
-18 -15 6 -14 2 3 -28 11 -18 28 -36 39 -37 10 -2 27 -13 39 -24 l21 -20 -31
15 c-17 9 -35 13 -39 9 -3 -4 -12 0 -18 9 -13 16 -47 33 -47 22 0 -4 7 -15 17
-25 11 -13 12 -18 3 -18 -10 0 -10 -3 0 -15 15 -18 34 -20 24 -2 -4 6 9 -5 30
-26 28 -28 36 -42 31 -58 -6 -18 -4 -20 16 -14 22 7 23 7 9 -10 -11 -14 -12
-19 -2 -22 17 -6 15 -23 -3 -18 -51 16 -50 16 -35 26 10 7 11 9 2 7 -8 -2 -13
-7 -13 -11 1 -4 1 -13 1 -21 0 -10 11 -13 39 -12 28 2 38 -1 34 -11 -3 -7 -1
-13 5 -13 6 0 13 6 15 13 4 9 6 9 6 -1 1 -7 -5 -15 -13 -18 -9 -3 -12 -12 -9
-21 5 -12 3 -14 -6 -8 -10 6 -11 3 -1 -14 9 -17 9 -26 -1 -37 -7 -9 -8 -14 -1
-14 6 0 16 8 21 18 13 22 14 7 1 -18 -8 -14 -5 -19 11 -23 13 -4 18 -10 14
-17 -4 -7 -1 -17 6 -22 11 -7 9 -8 -5 -4 -14 5 -17 2 -12 -10 3 -8 6 -20 6
-25 0 -6 4 -8 9 -5 5 3 11 0 14 -8 4 -10 -1 -12 -16 -9 -22 5 -22 5 -2 -10 11
-8 23 -13 26 -11 4 2 9 -3 13 -11 3 -8 0 -17 -6 -21 -6 -4 -9 -3 -5 2 3 5 -6
14 -19 21 -14 6 -24 7 -24 1 0 -5 -5 -6 -10 -3 -6 4 -8 21 -4 41 3 19 2 34 -3
34 -5 0 -10 -17 -11 -37 -2 -42 11 -73 22 -54 10 15 26 14 26 -2 0 -7 9 -18
20 -25 11 -7 20 -17 20 -23 0 -8 -4 -8 -14 0 -22 18 -36 -9 -30 -59 3 -24 7
-48 10 -52 3 -4 -5 -9 -18 -9 -17 -1 -18 -3 -5 -6 24 -6 21 -32 -5 -43 -14 -5
-17 -9 -8 -9 14 -1 39 -31 41 -48 0 -5 7 -15 15 -24 13 -14 13 -18 -1 -29 -10
-8 -15 -9 -15 -1 0 6 5 11 12 11 6 0 9 2 6 5 -7 7 -38 -5 -38 -15 0 -5 9 -12
20 -15 23 -7 27 -33 5 -41 -8 -4 -12 -10 -9 -15 3 -5 -4 -9 -15 -9 -12 0 -21
-7 -21 -15 0 -9 6 -12 18 -9 16 5 16 5 0 -9 -22 -17 -23 -31 -3 -23 12 4 13 2
3 -14 -7 -10 -24 -21 -38 -23 -21 -3 -20 -4 7 -6 23 -1 36 5 47 21 9 12 19 19
23 15 3 -4 -2 -14 -13 -22 -16 -12 -17 -16 -4 -24 8 -6 11 -13 7 -17 -4 -4 -2
-13 5 -21 9 -11 7 -12 -7 -7 -14 6 -16 4 -10 -6 5 -9 4 -11 -3 -6 -9 5 -9 13
-2 27 9 15 7 19 -5 19 -8 0 -15 -9 -15 -19 0 -11 -6 -21 -12 -24 -10 -4 -10
-7 0 -18 6 -7 12 -16 12 -21 0 -10 -33 2 -43 16 -5 7 -7 5 -4 -4 2 -8 13 -20
24 -25 17 -9 19 -15 11 -30 -9 -17 -7 -16 15 3 21 20 25 21 24 6 -1 -10 9 -24
23 -31 24 -12 24 -13 3 -13 -12 0 -23 6 -26 13 -3 9 -7 9 -19 0 -12 -10 -18
-10 -34 2 -22 17 -38 19 -29 4 4 -5 18 -14 31 -19 23 -9 25 -40 2 -40 -6 0 -8
6 -5 13 3 8 -1 14 -8 14 -10 0 -11 -5 -4 -19 5 -10 16 -18 24 -18 8 0 15 -5
15 -10 0 -6 -6 -10 -12 -8 -7 2 -13 -2 -13 -7 0 -6 7 -9 16 -8 9 1 16 -3 16
-10 1 -7 3 -25 6 -42 2 -16 2 -24 0 -17 -6 16 -21 15 -39 -3 -9 -8 -11 -15 -5
-15 5 0 13 5 17 11 4 7 12 -2 21 -21 7 -18 11 -35 8 -38 -3 -3 -5 -1 -5 5 0 6
-7 14 -16 17 -12 4 -15 2 -11 -9 7 -17 -9 -30 -18 -15 -3 5 -12 10 -18 10 -7
0 -3 -7 8 -16 11 -8 25 -12 32 -10 7 3 13 0 13 -7 0 -8 -15 -12 -39 -12 -46 0
-56 -7 -46 -32 5 -10 7 -21 7 -25 -3 -11 16 -10 22 1 4 5 1 11 -5 13 -5 2 -7
11 -3 21 5 14 9 15 20 6 8 -6 14 -8 14 -3 0 5 5 1 11 -9 12 -20 3 -39 -9 -20
-5 7 -11 3 -19 -13 -8 -17 -8 -24 0 -24 8 0 7 -4 -1 -12 -9 -9 -15 -8 -27 8
-16 18 -16 18 -10 -3 5 -18 -1 -27 -27 -43 -19 -11 -26 -20 -17 -20 9 0 24 9
34 20 20 22 40 27 30 8 -4 -7 7 2 24 20 17 17 33 32 36 32 2 0 9 -10 15 -22 8
-19 8 -20 -2 -6 -10 14 -14 14 -32 -10 -25 -31 -26 -52 -6 -70 13 -11 11 -11
-8 -2 -17 8 -26 8 -35 -2 -19 -19 -28 -46 -17 -53 11 -7 2 -35 -12 -35 -6 0
-8 6 -5 13 3 7 -3 13 -13 13 -13 0 -17 -6 -14 -24 4 -19 1 -23 -11 -19 -16 7
-21 -8 -6 -18 5 -3 16 3 23 12 12 16 68 31 68 19 0 -3 -12 -12 -27 -20 -16 -8
-21 -15 -13 -16 10 0 11 -3 3 -11 -8 -8 -8 -20 -3 -34 6 -17 5 -27 -6 -36 -8
-6 -17 -9 -21 -5 -3 3 -2 6 4 6 14 0 5 36 -13 51 -11 9 -14 8 -14 -4 0 -8 6
-17 13 -20 6 -2 9 -7 5 -11 -3 -4 -16 -3 -28 4 -11 6 -30 8 -40 5 -23 -7 -26
4 -7 25 6 8 0 4 -15 -9 -16 -14 -28 -19 -28 -13 0 15 36 52 51 52 8 0 8 5 -1
15 -17 20 -32 19 -28 -2 4 -23 -49 -50 -65 -34 -6 6 -18 11 -27 10 -13 0 -13
-1 0 -6 8 -3 27 -16 43 -29 15 -13 34 -21 42 -18 10 4 15 0 15 -12 0 -16 1
-16 13 -2 13 18 57 8 57 -13 0 -8 -5 -7 -17 2 -9 8 -14 9 -10 2 10 -16 -3 -44
-16 -36 -6 4 -8 0 -4 -10 5 -14 3 -15 -13 -4 -11 6 -20 16 -20 22 0 5 -5 3
-10 -5 -9 -13 -10 -13 -10 1 0 8 5 20 12 27 9 9 8 12 -5 12 -22 0 -23 -43 -2
-60 8 -7 12 -17 8 -24 -5 -8 -3 -8 8 1 11 9 18 8 33 -3 10 -7 23 -11 27 -8 5
3 9 -2 9 -10 0 -21 -19 -31 -33 -17 -9 9 -7 11 8 6 20 -7 20 -7 0 10 -17 14
-21 14 -31 1 -8 -12 -13 -13 -22 -4 -7 7 -12 9 -12 5 0 -4 -9 -3 -20 3 -17 9
-18 14 -9 31 9 19 9 19 -9 10 -15 -8 -21 -8 -24 1 -3 7 -7 6 -11 -5 -4 -11 -1
-17 7 -17 7 0 21 -9 30 -19 17 -18 17 -20 -1 -30 -11 -6 -13 -11 -5 -11 7 0
10 -5 6 -11 -10 -16 -23 9 -17 32 6 21 -21 27 -33 7 -5 -8 -2 -9 9 -5 14 5 15
2 6 -20 -7 -19 -6 -28 3 -34 7 -4 9 -11 5 -15 -9 -9 -38 16 -31 27 3 5 -3 6
-13 2 -16 -6 -17 -5 -3 12 14 17 13 18 -4 12 -12 -5 -17 -3 -13 5 2 7 -9 26
-24 41 -33 33 -40 25 -8 -9 l22 -23 -26 -30 c-13 -16 -28 -27 -31 -24 -3 4 -6
-8 -6 -25 0 -18 3 -32 8 -32 11 0 56 32 65 47 4 7 13 13 19 13 7 0 6 -5 -2
-15 -10 -12 -9 -15 4 -15 10 0 14 -4 11 -10 -3 -6 1 -7 9 -4 9 3 16 1 16 -5 0
-6 -5 -11 -12 -11 -6 0 -20 -7 -30 -17 -10 -9 -18 -11 -18 -5 0 6 6 12 13 15
10 4 10 7 0 18 -10 9 -13 10 -13 1 0 -7 -5 -11 -12 -10 -15 4 -18 -24 -3 -34
6 -5 2 -8 -8 -8 -10 0 -15 -5 -12 -10 10 -16 -18 -7 -32 10 -7 8 -13 11 -13 5
0 -12 -50 -16 -50 -4 0 5 -7 9 -16 9 -14 0 -14 -2 0 -15 8 -8 21 -15 30 -15 8
0 18 -4 21 -10 3 -5 11 -10 16 -10 6 0 7 4 4 10 -3 6 1 7 10 4 17 -7 14 -30
-4 -26 -20 4 -26 4 -53 3 -16 0 -28 -6 -28 -12 0 -5 5 -7 12 -3 7 4 8 3 4 -5
-4 -6 -12 -9 -17 -6 -5 4 -9 1 -9 -5 0 -6 -5 -8 -11 -4 -8 4 -7 9 2 15 17 10
5 23 -15 16 -9 -4 -13 -13 -10 -20 6 -16 -22 -31 -31 -17 -7 11 -25 7 -52 -10
-29 -19 -31 -44 -3 -37 14 3 20 0 20 -10 0 -9 7 -21 17 -28 13 -9 13 -14 3
-20 -8 -5 -11 -4 -7 2 4 6 0 14 -9 17 -26 10 -34 7 -28 -11 5 -17 5 -17 -9 0
-8 9 -28 17 -45 17 -25 0 -29 -3 -25 -20 4 -17 14 -20 54 -20 27 0 49 -4 49
-10 0 -5 -18 -10 -41 -10 -35 0 -40 -3 -35 -17 5 -15 3 -14 -9 2 -14 18 -15
16 -14 -33 1 -28 5 -52 9 -52 3 0 12 16 19 35 7 22 19 35 30 35 9 0 23 6 31
13 12 10 12 9 2 -5 -8 -9 -9 -19 -4 -22 5 -3 12 -19 14 -36 3 -16 2 -28 0 -25
-3 3 -11 -3 -19 -13 -13 -15 -14 -14 -9 13 6 37 -9 70 -19 43 -4 -10 -3 -23 1
-30 4 -7 4 -10 -1 -6 -4 4 -13 0 -20 -8 -18 -25 -52 -9 -67 32 -8 24 -17 33
-27 29 -9 -3 -12 -3 -8 1 4 4 0 18 -8 30 -17 26 -5 40 21 26 11 -6 13 -11 5
-16 -6 -4 -11 -12 -11 -18 0 -6 6 -6 15 2 9 7 14 19 11 25 -2 7 1 18 7 24 9 9
6 13 -11 17 -12 4 -22 12 -22 20 0 7 6 11 14 8 9 -3 15 4 18 21 5 24 4 25 -12
10 -14 -12 -20 -13 -26 -4 -4 7 -3 10 4 5 6 -4 12 3 14 16 2 15 9 22 21 22 9
-1 17 2 17 7 0 5 12 9 26 9 14 0 23 4 20 9 -3 5 -22 9 -42 8 -20 -1 -31 -3
-25 -5 8 -3 5 -10 -9 -19 -28 -20 -35 -11 -15 21 11 16 22 23 33 19 15 -6 15
-5 4 10 -12 14 -16 15 -29 2 -8 -8 -19 -15 -25 -15 -5 0 -8 -7 -4 -15 3 -8 1
-15 -4 -15 -6 0 -8 -17 -5 -39 6 -50 -8 -89 -37 -101 l-23 -9 22 0 c29 -1 43
-29 43 -84 l0 -45 -70 2 c-40 1 -72 -3 -74 -9 -5 -11 -9 38 -6 75 2 36 35 67
53 52 8 -7 17 -9 20 -6 4 4 -8 14 -26 23 -17 9 -36 25 -42 36 -11 22 -46 30
-56 13 -4 -7 -9 -7 -13 1 -4 6 -3 11 2 11 5 0 7 11 5 23 -4 20 -33 35 -33 17
0 -3 -9 -6 -20 -7 -11 -1 -20 4 -20 12 0 9 6 12 17 8 11 -4 14 -3 9 5 -9 15
26 16 41 1 7 -7 9 -3 5 17 -3 19 -1 25 7 20 6 -4 9 -12 5 -17 -3 -5 5 -18 18
-29 18 -16 20 -19 6 -20 -9 0 -19 6 -21 13 -4 9 -6 9 -6 -1 -1 -19 29 -47 38
-36 14 17 31 65 21 59 -5 -3 -10 1 -10 9 0 9 -4 16 -10 16 -14 0 -13 -13 3
-29 10 -11 9 -13 -3 -9 -22 7 -24 37 -3 60 10 12 12 18 6 14 -7 -4 -13 -3 -13
1 0 5 6 15 13 23 10 12 9 12 -6 0 -10 -7 -16 -19 -13 -27 4 -9 -3 -13 -19 -13
-14 0 -25 -6 -25 -13 0 -8 -12 -14 -30 -14 -29 0 -29 1 -13 19 16 18 16 18 -3
12 -32 -12 -44 -25 -45 -53 -2 -23 -2 -24 -6 -3 -2 12 -9 22 -14 22 -5 0 -9 4
-9 10 0 5 6 7 14 4 8 -3 19 3 25 15 9 17 9 19 -3 15 -8 -3 -17 0 -22 7 -5 8
-3 10 7 4 8 -5 11 -4 6 1 -5 5 -14 9 -19 9 -6 0 -13 6 -16 13 -2 8 3 10 15 6
14 -5 15 -4 3 4 -8 6 -18 8 -23 5 -4 -3 -8 1 -6 8 3 26 -1 37 -16 43 -13 4
-14 2 -5 -14 8 -15 8 -18 -3 -14 -8 3 -20 16 -27 29 -12 23 -22 25 -87 14 -21
-4 -33 2 -27 12 4 8 9 7 15 -2 6 -11 9 -9 9 7 0 17 7 21 31 22 51 1 46 12 -5
12 -29 0 -45 -4 -41 -10 3 -5 1 -10 -4 -10 -6 0 -11 5 -11 10 0 6 -10 10 -22
10 -13 0 -18 -3 -12 -8 14 -9 44 -71 50 -102 3 -14 12 -44 20 -68 9 -27 14
-83 14 -152 0 -67 4 -110 10 -110 6 0 10 32 10 75 0 59 3 77 15 82 25 9 28 -2
27 -77 l-2 -70 60 0 c69 0 74 8 67 93 -5 51 -4 53 46 61 30 5 32 3 17 -25 -6
-11 -12 -57 -13 -103 -1 -51 -6 -82 -12 -81 -5 2 -50 6 -100 10 -49 3 -99 7
-109 8 -17 2 -22 -10 -37 -84 -26 -131 -84 -244 -170 -329 l-71 -69 63 -41
c34 -22 58 -40 53 -41 -5 0 8 -7 29 -14 88 -33 394 -54 797 -55 359 -2 696
-16 805 -34 390 -65 1225 -66 1369 -1 30 14 29 14 -24 8 -30 -3 -63 -10 -73
-15 -9 -5 -69 -12 -132 -15 -95 -5 -115 -4 -115 8 0 8 -3 10 -8 4 -8 -11 -72
-14 -72 -3 0 13 82 21 90 8 5 -7 19 -9 41 -5 75 15 99 17 99 8 0 -9 29 -6 123
14 15 3 27 9 27 13 0 4 6 7 13 7 28 -3 107 15 107 25 0 6 -10 8 -26 4 -17 -5
-23 -3 -19 4 14 23 -7 27 -45 8 -49 -24 -110 -39 -110 -27 0 5 7 9 16 9 8 0
12 5 9 10 -9 15 -35 12 -35 -4 0 -10 -12 -12 -47 -9 -66 6 -76 11 -25 12 47 1
57 16 15 24 -16 3 -43 8 -60 12 -20 4 -46 1 -65 -8 -35 -15 -105 -36 -202 -62
-137 -35 -311 -29 -446 16 -167 55 -402 204 -514 327 -28 31 -58 63 -66 72
-28 28 -80 104 -96 140 -4 8 -17 29 -30 46 -13 17 -20 35 -16 39 4 5 1 5 -5 1
-7 -4 -13 -16 -13 -27 0 -21 -15 -26 -25 -8 -4 6 -13 8 -20 5 -18 -6 -35 14
-35 41 0 15 8 27 24 32 31 13 39 38 18 59 -9 10 -19 27 -20 37 -2 11 -8 22
-13 23 -5 2 -9 11 -9 20 0 8 -3 12 -7 9 -3 -4 -12 1 -19 11 -15 21 -3 48 26
57 11 4 17 11 14 17 -5 7 -2 8 5 3 8 -4 30 5 55 23 23 17 56 34 72 37 34 8 97
35 104 45 3 4 30 20 60 35 30 15 59 33 65 40 17 20 65 37 65 23 0 -7 7 -2 16
10 11 16 20 20 32 13 9 -5 26 -5 37 0 11 4 15 8 9 8 -15 1 -13 29 3 35 7 3 13
16 13 28 0 19 2 20 11 8 9 -13 10 -13 6 0 -2 8 -11 14 -20 12 -15 -3 -18 13
-4 35 4 6 4 19 1 28 -4 10 -1 21 7 26 11 7 11 9 -3 9 -16 0 -18 5 -18 73 0 20
-3 26 -12 21 -7 -4 -4 3 6 15 17 18 17 21 3 15 -10 -3 -17 -1 -17 5 0 6 7 11
15 11 17 0 20 16 4 25 -6 4 -8 13 -5 21 3 8 1 14 -5 14 -6 0 -7 5 -2 13 14 22
12 81 -5 107 -14 23 -14 24 1 11 20 -16 22 -8 6 21 -8 15 -8 19 0 14 6 -4 11
-1 11 8 0 8 -4 17 -9 20 -4 3 -7 17 -6 31 2 14 -1 25 -7 25 -5 0 -2 7 7 16 11
12 13 20 6 27 -14 14 -14 40 -1 32 6 -3 7 1 4 9 -3 9 -11 13 -18 9 -6 -3 -2 4
9 17 17 19 17 22 3 17 -12 -4 -16 -1 -15 12 0 11 6 17 13 14 7 -3 10 5 7 24
-5 31 -6 58 -3 88 2 11 -1 29 -5 39 -6 13 -5 17 2 13 7 -4 10 2 9 17 -1 16 -6
22 -16 18 -11 -4 -9 1 4 17 13 14 15 20 5 17 -17 -7 -46 10 -36 21 5 4 11 2
15 -4 5 -7 13 -9 21 -4 10 7 8 10 -8 16 -21 6 -21 8 -6 31 9 15 11 24 4 24 -6
0 -9 6 -6 13 2 6 0 20 -5 30 -6 12 -5 19 6 23 8 3 13 11 10 19 -3 7 2 19 10
28 16 15 12 27 -7 23 -7 -2 -9 -1 -4 1 4 3 4 9 1 15 -4 6 2 8 17 4 13 -3 18
-3 11 0 -6 3 -10 10 -6 15 3 5 0 9 -7 9 -6 0 -3 8 8 18 10 9 14 14 7 9 -7 -4
-14 -1 -18 8 -3 9 -2 13 4 10 5 -3 14 3 20 14 9 18 8 20 -7 14 -15 -6 -16 -4
-6 9 7 8 10 18 6 21 -3 4 -1 7 5 7 6 0 15 -7 20 -16 8 -14 10 -14 21 0 8 9 18
16 23 16 5 0 2 -7 -6 -16 -17 -16 -22 -39 -7 -30 5 3 12 -1 15 -10 3 -8 11
-12 17 -8 8 5 8 1 0 -14 -9 -16 -7 -21 7 -27 16 -6 16 -7 -2 -20 -10 -8 -16
-20 -13 -27 4 -10 6 -10 6 0 1 6 6 12 12 12 7 0 9 -10 5 -25 -4 -14 -3 -25 1
-25 8 0 9 -98 1 -105 -4 -4 -1 -102 5 -165 2 -19 1 -39 -1 -44 -8 -14 -6 -81
2 -94 4 -7 3 -12 -1 -12 -5 0 -7 -16 -5 -35 3 -21 0 -35 -7 -35 -6 0 -11 -5
-11 -11 0 -6 6 -9 14 -6 11 4 13 0 7 -21 -3 -15 -5 -40 -4 -57 2 -16 3 -37 3
-45 -1 -8 -2 -83 -3 -167 -1 -103 -5 -149 -12 -143 -7 6 -11 2 -11 -10 0 -10
5 -16 10 -13 5 4 7 -1 3 -9 -3 -9 0 -21 6 -27 8 -8 8 -14 0 -22 -6 -6 -9 -18
-6 -25 3 -8 0 -14 -6 -14 -6 0 -11 -7 -11 -16 0 -9 -5 -12 -12 -8 -8 5 -7 0 2
-11 14 -16 13 -17 -8 -11 -13 4 -22 3 -22 -3 0 -22 72 -14 90 10 3 4 37 24 75
44 87 46 95 53 73 69 -12 9 -17 32 -20 84 -3 40 -2 74 1 76 3 2 14 0 25 -3 18
-7 18 -8 0 -26 -13 -13 -15 -20 -6 -23 7 -2 10 -8 6 -13 -3 -5 4 -9 15 -9 12
0 21 5 21 10 0 16 14 11 27 -10 9 -14 10 -21 1 -26 -7 -4 -8 -3 -4 4 5 8 -1
12 -16 12 -20 0 -23 -6 -26 -45 -2 -37 0 -44 13 -39 16 7 21 34 5 34 -5 0 -7
7 -4 15 8 20 24 9 24 -15 0 -16 6 -19 39 -17 22 1 38 3 36 5 -9 10 47 53 76
58 19 4 39 10 44 14 6 4 38 13 73 20 45 9 62 17 62 29 1 14 2 14 13 -1 14 -18
55 -13 110 14 29 14 67 79 67 115 0 13 9 23 23 28 14 4 17 8 9 12 -10 4 -10 9
3 23 12 14 13 20 4 26 -7 4 -10 3 -5 -4 3 -6 2 -13 -3 -16 -5 -4 -12 2 -16 13
-3 10 -19 22 -38 26 -22 5 -26 9 -14 12 9 2 17 11 17 19 0 8 4 14 9 14 5 0 13
10 17 23 6 18 8 19 13 6 5 -14 8 -14 25 2 13 12 15 19 7 19 -11 0 -11 3 0 16
10 13 10 17 -2 25 -8 5 -20 9 -27 9 -7 0 -10 5 -7 11 4 6 -7 24 -24 41 -17 17
-29 24 -26 16 3 -8 -1 -21 -10 -28 -14 -12 -18 -11 -26 1 -5 8 -9 22 -9 31 0
24 -40 27 -72 5 -24 -16 -28 -16 -28 -3 0 9 -7 16 -15 16 -8 0 -15 6 -15 13 0
8 -4 7 -10 -3 -9 -13 -13 -11 -31 9 l-20 25 6 -26 c8 -33 -20 -46 -37 -18 -7
11 -18 20 -25 20 -7 0 -13 5 -13 11 0 5 -4 8 -9 4 -5 -3 -17 5 -25 17 -11 15
-16 18 -16 8 -1 -11 -3 -11 -11 3 -6 9 -14 15 -20 12 -5 -4 -9 0 -9 7 0 9 -3
9 -10 -2 -5 -8 -10 -10 -10 -5 0 6 -4 4 -8 -3 -7 -9 -15 -10 -35 -3 -19 8 -28
6 -37 -5 -17 -19 -30 -18 -30 4 0 13 2 14 9 3 6 -10 10 -10 16 -1 10 15 4 19
-33 22 -31 2 -32 4 -33 48 0 25 -2 53 -4 63 -2 9 2 17 8 17 9 0 9 2 1 8 -18
11 -13 210 5 221 9 6 10 11 2 15 -6 4 -11 13 -11 21 0 11 7 12 31 5 18 -5 36
-7 42 -3 6 3 7 1 3 -5 -4 -7 -1 -12 8 -12 8 0 18 -5 22 -12 5 -7 3 -8 -6 -3
-8 5 -11 4 -6 -3 4 -6 13 -9 21 -6 8 4 12 10 9 15 -7 12 17 11 36 -1 12 -8 12
-10 -5 -10 -17 0 -18 -2 -5 -11 12 -8 9 -9 -12 -5 -33 7 -47 -9 -15 -18 35 -9
55 -7 70 9 12 12 20 12 41 2 14 -7 26 -16 26 -20 0 -5 -5 -5 -12 -1 -7 5 -8 3
-4 -5 9 -13 56 -35 69 -32 5 1 6 -3 2 -9 -3 -5 -21 -10 -38 -10 -24 0 -28 -3
-17 -10 13 -9 7 -14 -12 -11 -5 0 -8 -3 -8 -9 0 -5 7 -10 16 -10 12 0 11 -5
-7 -20 l-24 -20 27 10 c32 11 58 4 58 -16 0 -17 16 -19 25 -3 4 6 13 8 20 5 7
-2 18 1 24 7 8 8 11 7 11 -5 0 -9 -7 -18 -15 -22 -8 -3 -15 0 -15 6 0 7 -5 6
-15 -2 -9 -8 -30 -10 -57 -6 -24 3 -51 6 -60 7 -10 0 -18 8 -18 17 0 14 -2 15
-10 2 -6 -10 -4 -20 5 -30 13 -14 12 -16 -8 -17 -15 -2 -18 0 -8 6 18 11 -2
24 -46 28 -25 3 -33 0 -33 -12 0 -9 4 -14 9 -10 5 3 12 1 16 -5 3 -5 -1 -10
-9 -10 -8 0 -17 -4 -21 -9 -3 -6 4 -8 17 -6 25 5 88 -14 88 -27 0 -5 14 5 30
21 32 30 94 43 64 13 -14 -14 -14 -16 2 -25 13 -7 21 -5 31 9 13 18 18 9 13
-25 -1 -11 8 -12 39 -7 27 4 41 2 41 -4 0 -6 6 -8 13 -5 15 8 -15 -16 -38 -30
-10 -6 -14 -16 -10 -27 4 -10 11 -15 16 -12 5 3 9 1 9 -4 0 -6 6 -12 14 -15
10 -4 13 1 11 19 -1 15 3 24 12 24 8 0 12 -4 9 -9 -4 -5 4 -7 16 -3 12 3 17 7
10 10 -6 2 -12 8 -12 13 0 6 5 7 12 3 8 -5 9 -2 5 10 -4 10 -3 15 3 11 6 -3
10 -2 10 4 0 6 6 8 14 5 15 -6 31 -49 27 -72 -2 -10 2 -10 18 0 12 7 21 18 21
25 0 7 5 13 11 13 5 0 8 4 4 9 -3 5 -1 12 4 15 5 3 11 -3 14 -14 3 -11 9 -20
14 -19 19 3 46 -1 40 -7 -9 -9 15 -30 43 -39 23 -6 24 -6 7 7 -18 13 -17 14 5
25 77 35 78 36 67 50 -9 10 -8 13 5 13 9 0 15 3 15 8 -3 20 2 42 10 40 5 -2 9
1 10 5 0 4 7 15 16 23 8 9 15 21 15 28 0 6 9 18 20 26 21 15 29 37 9 24 -8 -5
-8 -1 0 13 13 25 6 33 -33 34 -25 0 -27 2 -11 8 18 7 17 8 -6 13 -14 2 -34 1
-45 -2 -10 -4 -24 -4 -29 1 -13 10 -95 7 -95 -3 0 -5 -5 -8 -10 -8 -6 0 -9 3
-9 8 3 20 -2 32 -12 26 -6 -3 -15 0 -20 7 -6 10 -9 11 -9 2 0 -7 -9 -13 -21
-13 -11 0 -17 5 -14 10 4 6 -6 10 -24 10 -16 0 -33 5 -36 10 -9 14 -49 12 -64
-2 -10 -11 -11 -10 -6 5 5 11 2 17 -8 17 -9 0 -24 3 -34 7 -15 6 -16 4 -6 -8
10 -12 8 -15 -7 -15 -10 0 -17 3 -14 7 2 4 -3 12 -11 19 -13 10 -19 9 -35 -5
-11 -10 -20 -13 -20 -7 0 6 4 12 10 14 6 2 6 9 0 18 -7 11 -12 12 -20 4 -8 -8
-26 -8 -57 -3 -25 5 -49 6 -54 3 -5 -3 -24 2 -43 11 -19 9 -50 17 -70 18 -20
1 -36 5 -36 10 0 4 -3 6 -7 6 -5 -1 -18 -1 -30 0 -23 1 -23 3 -23 140 l0 138
42 7 c33 6 39 9 28 17 -13 9 -12 10 2 6 9 -3 31 -2 50 3 42 12 152 115 144
136 -6 14 26 54 43 54 5 0 11 6 14 14 3 8 14 14 24 14 29 -1 47 6 66 26 20 22
22 30 5 20 -8 -5 -9 -1 -4 12 5 14 0 12 -19 -8 -26 -28 -42 -37 -30 -18 3 6 2
10 -4 10 -5 0 -13 -4 -16 -10 -3 -5 -12 -10 -18 -10 -9 0 -13 20 -13 64 1 35
4 62 8 60 10 -6 31 36 22 44 -4 4 -9 1 -11 -5 -9 -25 -21 -13 -19 18 1 16 -1
32 -6 35 -4 3 -8 19 -8 35 0 25 3 29 23 26 12 -2 35 -9 50 -15 16 -7 38 -12
51 -12 12 0 27 -5 33 -11 5 -5 26 -11 46 -12 19 -1 33 -5 30 -9 -2 -5 1 -8 7
-8 6 0 8 -4 5 -10 -3 -5 -1 -19 5 -30 9 -16 8 -20 -5 -20 -9 0 -14 4 -10 9 3
5 1 12 -4 15 -8 5 -15 -9 -33 -64 -20 -57 -29 -75 -38 -72 -6 1 -9 -2 -5 -8 3
-5 21 -10 39 -10 28 0 36 6 50 33 15 31 16 31 17 7 1 -17 3 -20 6 -7 2 9 9 17
14 17 5 0 8 17 8 38 -1 20 -3 29 -6 19 -2 -9 -8 -15 -13 -12 -18 11 2 35 25
29 28 -7 42 21 17 36 -14 9 -11 10 16 7 32 -3 32 -3 17 20 -15 22 -14 24 9 34
17 8 22 17 18 32 -3 14 -1 18 6 13 15 -9 15 -7 1 33 -10 30 -19 35 -46 32 -7
-1 -13 5 -13 14 0 9 4 14 9 11 28 -18 60 65 37 97 -14 18 -56 24 -56 6 0 -5
-4 -7 -10 -4 -17 10 -11 24 13 30 18 5 22 12 22 41 -1 19 -7 40 -13 46 -12 12
-75 22 -68 10 3 -5 -1 -9 -9 -9 -8 0 -17 7 -19 14 -3 8 -1 11 4 8 9 -6 14 8
11 28 0 4 5 6 11 5 18 -4 10 44 -9 59 -19 15 -78 9 -101 -9 -13 -11 -14 -11
-7 2 5 8 10 29 10 46 2 28 -2 33 -27 38 -15 3 -40 1 -54 -4 -33 -13 -31 -13
-37 11 -5 18 -11 21 -44 16 -21 -2 -49 -8 -63 -12 l-25 -8 21 19 c11 10 26 31
32 46 9 22 8 30 -8 48 -11 12 -24 19 -31 15 -6 -4 -3 4 6 19 17 25 17 26 -6
26 -22 0 -22 0 -3 15 18 14 18 14 -5 15 -19 0 -22 4 -18 21 3 13 -2 28 -14 40
-22 22 -34 22 -68 4z m14 -95 c3 -5 2 -10 -4 -10 -5 0 -13 5 -16 10 -3 6 -2
10 4 10 5 0 13 -4 16 -10z m35 -37 c-8 -3 -18 -11 -22 -16 -3 -6 -15 -12 -25
-13 -9 -2 -19 -8 -21 -14 -4 -12 -22 -4 -22 11 0 5 8 9 18 9 9 0 26 7 36 15
11 8 27 15 35 14 14 0 14 -1 1 -6z m50 -105 c0 -6 -7 -7 -16 -4 -9 3 -20 6
-25 6 -5 0 -9 4 -9 9 0 4 11 6 25 3 14 -2 25 -9 25 -14z m-196 -143 c-4 -8 -7
-15 -9 -15 -2 0 -5 7 -9 15 -3 9 0 15 9 15 9 0 12 -6 9 -15z m397 -33 c-6 -2
-11 -11 -11 -20 0 -12 -3 -13 -12 -4 -8 8 -8 15 0 25 7 8 8 18 4 23 -4 4 1 2
12 -6 10 -8 14 -16 7 -18z m37 -7 c-3 -3 -9 2 -12 12 -6 14 -5 15 5 6 7 -7 10
-15 7 -18z m-85 -10 c-3 -9 -8 -14 -10 -11 -3 3 -2 9 2 15 9 16 15 13 8 -4z
m-59 -23 c3 -5 -1 -9 -9 -9 -8 0 -15 4 -15 9 0 4 4 8 9 8 6 0 12 -4 15 -8z
m246 -93 c0 -6 7 -8 16 -5 10 4 14 2 11 -6 -2 -7 -10 -12 -17 -10 -11 2 -11 0
-2 -11 10 -12 8 -14 -14 -14 -18 0 -22 3 -15 10 13 13 15 31 3 23 -5 -3 -9 1
-9 9 0 8 6 15 14 15 7 0 13 -5 13 -11z m-40 -39 c0 -5 -5 -10 -11 -10 -5 0 -7
5 -4 10 3 6 8 10 11 10 2 0 4 -4 4 -10z m57 -40 c7 -8 13 -23 13 -32 0 -16 11
-23 33 -19 5 1 6 -3 2 -9 -3 -6 -11 -8 -16 -5 -5 4 -9 1 -9 -4 0 -6 -5 -11
-11 -11 -5 0 -8 4 -4 9 8 15 -24 41 -43 35 -14 -5 -14 -4 -2 4 8 6 18 8 22 6
4 -3 8 1 8 10 0 8 -12 19 -27 25 -27 10 -27 10 -3 8 14 -1 30 -9 37 -17z m69
8 c4 4 2 -1 -5 -11 -11 -14 -16 -15 -22 -5 -13 20 -10 32 4 19 8 -6 18 -7 23
-3z m-145 -21 c-10 -9 -11 -8 -5 6 3 10 9 15 12 12 3 -3 0 -11 -7 -18z m-1211
-6 c0 -5 -7 -11 -15 -15 -15 -5 -20 5 -8 17 9 10 23 9 23 -2z m-97 -46 c-3 -9
-8 -14 -10 -11 -3 3 -2 9 2 15 9 16 15 13 8 -4z m1180 -10 c4 -8 2 -17 -2 -20
-5 -2 -11 4 -14 15 -6 23 8 27 16 5z m-83 -21 c0 -8 -4 -12 -10 -9 -5 3 -10
10 -10 16 0 5 5 9 10 9 6 0 10 -7 10 -16z m-1060 -15 c0 -11 -4 -17 -10 -14
-5 3 -10 13 -10 21 0 8 5 14 10 14 6 0 10 -9 10 -21z m104 13 c2 -4 1 -14 -5
-22 -6 -11 -9 -12 -9 -2 0 7 -4 10 -10 7 -5 -3 -10 1 -10 9 0 17 25 22 34 8z
m1213 -64 c-3 -7 -5 -2 -5 12 0 14 2 19 5 13 2 -7 2 -19 0 -25z m-1257 -3 c0
-8 -7 -15 -15 -15 -16 0 -20 12 -8 23 11 12 23 8 23 -8z m90 -5 c0 -5 -4 -10
-10 -10 -5 0 -10 5 -10 10 0 6 5 10 10 10 6 0 10 -4 10 -10z m1229 -63 c-9 -7
-14 -19 -12 -27 4 -13 3 -13 -6 0 -15 21 -14 28 7 33 27 7 28 7 11 -6z m-1249
-47 c0 -11 -4 -20 -8 -20 -4 0 -8 9 -8 20 0 11 4 20 8 20 4 0 8 -9 8 -20z
m960 -15 c0 -8 -4 -15 -9 -15 -13 0 -22 16 -14 24 11 11 23 6 23 -9z m-950
-71 c0 -8 -4 -14 -10 -14 -5 0 -10 9 -10 21 0 11 5 17 10 14 6 -3 10 -13 10
-21z m70 -6 c0 -5 -4 -8 -10 -8 -5 0 -10 10 -10 23 0 18 2 19 10 7 5 -8 10
-18 10 -22z m78 -33 c-3 -3 -9 2 -12 12 -6 14 -5 15 5 6 7 -7 10 -15 7 -18z
m-64 -41 c3 -8 2 -12 -4 -9 -6 3 -10 10 -10 16 0 14 7 11 14 -7z m82 -31 c-7
-7 -26 7 -26 19 0 6 6 6 15 -2 9 -7 13 -15 11 -17z m-46 -54 c0 -6 -4 -7 -10
-4 -5 3 -10 11 -10 16 0 6 5 7 10 4 6 -3 10 -11 10 -16z m-50 -9 c0 -5 -4 -10
-9 -10 -6 0 -13 5 -16 10 -3 6 1 10 9 10 9 0 16 -4 16 -10z m17 -24 c-4 -9 -1
-13 6 -10 7 2 28 -7 47 -21 19 -14 29 -25 23 -25 -6 0 -16 7 -23 15 -7 8 -16
13 -20 10 -5 -3 -11 -1 -15 4 -3 6 -12 8 -19 5 -8 -3 -17 0 -21 5 -3 6 -11 9
-16 6 -5 -4 -9 -4 -9 0 0 3 10 10 23 15 30 12 30 12 24 -4z m123 4 c0 -5 -2
-10 -4 -10 -3 0 -8 5 -11 10 -3 6 -1 10 4 10 6 0 11 -4 11 -10z m51 -7 c13
-17 13 -17 -6 -3 -11 8 -22 16 -24 17 -2 2 0 3 6 3 6 0 17 -8 24 -17z m64 -3
c3 -5 2 -10 -4 -10 -5 0 -13 5 -16 10 -3 6 -2 10 4 10 5 0 13 -4 16 -10z m-84
-57 l34 -36 -35 19 c-19 11 -36 28 -38 37 -5 24 0 22 39 -20z m159 11 c0 -2
-9 -4 -21 -4 -11 0 -18 4 -14 10 5 8 35 3 35 -6z m-45 -24 c3 -5 2 -10 -4 -10
-5 0 -13 5 -16 10 -3 6 -2 10 4 10 5 0 13 -4 16 -10z m82 -26 c-3 -3 -12 -4
-19 -1 -8 3 -5 6 6 6 11 1 17 -2 13 -5z m-337 -25 c0 -6 -4 -7 -10 -4 -5 3
-10 11 -10 16 0 6 5 7 10 4 6 -3 10 -11 10 -16z m367 5 c-3 -3 -12 -4 -19 -1
-8 3 -5 6 6 6 11 1 17 -2 13 -5z m-297 -118 c0 -3 -4 -8 -10 -11 -5 -3 -10 -1
-10 4 0 6 5 11 10 11 6 0 10 -2 10 -4z m325 -166 c3 -5 1 -10 -4 -10 -6 0 -11
5 -11 10 0 6 2 10 4 10 3 0 8 -4 11 -10z m-359 -55 c-3 -8 -2 -15 2 -15 4 0 8
-8 8 -19 0 -11 -5 -17 -13 -14 -16 6 -17 63 -2 63 6 0 9 -7 5 -15z m84 9 c0
-8 -19 -13 -24 -6 -3 5 1 9 9 9 8 0 15 -2 15 -3z m295 -14 c3 -5 1 -10 -4 -10
-6 0 -11 5 -11 10 0 6 2 10 4 10 3 0 8 -4 11 -10z m292 4 c-3 -3 -12 -4 -19
-1 -8 3 -5 6 6 6 11 1 17 -2 13 -5z m-617 -8 c0 -3 -4 -8 -10 -11 -5 -3 -10
-1 -10 4 0 6 5 11 10 11 6 0 10 -2 10 -4z m690 -10 c0 -3 -4 -8 -10 -11 -5 -3
-10 -1 -10 4 0 6 5 11 10 11 6 0 10 -2 10 -4z m90 -30 c0 -2 -7 -7 -16 -10 -8
-3 -12 -2 -9 4 6 10 25 14 25 6z m210 -16 c0 -5 -4 -10 -10 -10 -5 0 -10 5
-10 10 0 6 5 10 10 10 6 0 10 -4 10 -10z m-117 -7 c-7 -2 -19 -2 -25 0 -7 3
-2 5 12 5 14 0 19 -2 13 -5z m-7 -38 c0 -26 -20 -38 -63 -40 -31 -1 -19 11 18
19 21 4 29 10 26 20 -3 8 -3 17 0 20 12 12 19 5 19 -19z m-905 -8 c-10 -9 -11
-8 -5 6 3 10 9 15 12 12 3 -3 0 -11 -7 -18z m-2 -31 c9 -11 9 -16 -1 -22 -7
-4 -10 -4 -6 1 4 4 3 14 -3 22 -6 7 -9 13 -6 13 2 0 10 -6 16 -14z m1362 -4
c-7 -2 -18 1 -23 6 -8 8 -4 9 13 5 13 -4 18 -8 10 -11z m-390 -19 c13 -16 12
-17 -3 -4 -17 13 -22 21 -14 21 2 0 10 -8 17 -17z m339 -3 c0 -5 -8 -10 -17
-10 -15 0 -16 2 -3 10 19 12 20 12 20 0z m40 -45 c-7 -8 -17 -15 -22 -15 -6 0
-5 7 2 15 7 8 17 15 22 15 6 0 5 -7 -2 -15z m-383 -22 c-9 -9 -20 -13 -24 -9
-4 4 -1 11 7 16 25 16 35 11 17 -7z m-784 -8 c-3 -9 -8 -14 -10 -11 -3 3 -2 9
2 15 9 16 15 13 8 -4z m980 -10 c-3 -9 -8 -14 -10 -11 -3 3 -2 9 2 15 9 16 15
13 8 -4z m-1158 -25 c-4 -12 -1 -28 6 -36 10 -12 9 -13 -5 -8 -17 6 -20 22
-10 48 9 23 16 19 9 -4z m735 6 c0 -3 -4 -8 -10 -11 -5 -3 -10 -1 -10 4 0 6 5
11 10 11 6 0 10 -2 10 -4z m475 -87 c12 -19 -5 -23 -22 -6 -16 16 -16 17 -1
17 9 0 20 -5 23 -11z m-1210 -39 c3 -5 1 -10 -4 -10 -6 0 -11 5 -11 10 0 6 2
10 4 10 3 0 8 -4 11 -10z m205 -21 c0 -11 -4 -18 -10 -14 -5 3 -7 12 -3 20 7
21 13 19 13 -6z m490 -9 c0 -5 -5 -10 -11 -10 -5 0 -7 5 -4 10 3 6 8 10 11 10
2 0 4 -4 4 -10z m-143 -52 c-3 -7 -5 -2 -5 12 0 14 2 19 5 13 2 -7 2 -19 0
-25z m-572 -8 c3 -5 1 -10 -4 -10 -6 0 -11 5 -11 10 0 6 2 10 4 10 3 0 8 -4
11 -10z m565 -50 c16 9 20 8 20 -5 0 -8 9 -15 20 -15 11 0 20 -4 20 -10 0 -5
6 -10 13 -10 7 0 13 -9 14 -21 2 -18 -3 -21 -32 -17 -18 2 -31 0 -29 -4 3 -4
1 -8 -5 -8 -23 0 -32 -39 -16 -69 19 -38 19 -51 -1 -51 -8 0 -12 -5 -9 -11 4
-6 -1 -6 -12 2 -11 6 -20 17 -21 23 -6 73 -8 182 -4 203 5 26 5 27 13 5 7 -19
12 -21 29 -12z m-500 10 c0 -5 -2 -10 -4 -10 -3 0 -8 5 -11 10 -3 6 -1 10 4
10 6 0 11 -4 11 -10z m650 -21 c0 -5 -4 -9 -10 -9 -5 0 -10 7 -10 16 0 8 5 12
10 9 6 -3 10 -10 10 -16z m307 -14 c8 -22 -6 -33 -17 -15 -13 20 -12 30 0 30
6 0 13 -7 17 -15z m-1055 -37 c-7 -7 -12 -8 -12 -2 0 6 3 14 7 17 3 4 9 5 12
2 2 -3 -1 -11 -7 -17z m48 2 c0 -5 -2 -10 -4 -10 -3 0 -8 5 -11 10 -3 6 -1 10
4 10 6 0 11 -4 11 -10z m983 -64 c13 5 16 2 11 -10 -3 -9 -1 -16 5 -16 6 0 11
7 11 15 0 8 7 15 15 15 8 0 15 -5 15 -11 0 -5 -5 -7 -12 -3 -7 5 -9 2 -5 -9
10 -25 -19 -28 -47 -4 -14 13 -26 27 -26 32 0 6 4 4 8 -3 5 -7 16 -10 25 -6z
m-73 -16 c0 -5 -6 -10 -14 -10 -8 0 -18 5 -21 10 -3 6 3 10 14 10 12 0 21 -4
21 -10z m-918 -24 c7 4 8 2 4 -5 -9 -13 -26 -5 -25 12 0 9 2 8 6 -1 2 -6 10
-9 15 -6z m970 -20 c-2 -5 1 -12 7 -15 15 -10 0 -27 -30 -34 -39 -10 -58 16
-33 44 17 19 63 23 56 5z m-74 -41 c13 -28 2 -34 -18 -10 -7 8 -21 15 -31 15
-11 0 -19 5 -19 10 0 6 13 10 28 10 21 0 32 -7 40 -25z m-248 5 c0 -5 -4 -10
-9 -10 -6 0 -13 5 -16 10 -3 6 1 10 9 10 9 0 16 -4 16 -10z m60 -20 c-37 -28
-50 -24 -15 5 16 13 32 22 34 19 3 -3 -5 -14 -19 -24z m-91 -23 c-2 -1 -13 -9
-24 -17 -19 -14 -19 -14 -6 3 7 9 18 17 24 17 6 0 8 -1 6 -3z m-71 -29 c7 -7
12 -9 12 -6 0 3 19 0 43 -7 38 -11 47 -11 79 5 l36 18 -10 -24 c-12 -26 -28
-32 -28 -11 0 9 -3 8 -9 -2 -7 -10 -24 -12 -79 -6 -57 6 -71 10 -75 26 -6 21
12 26 31 7z m14 -47 c8 11 9 11 6 1 -4 -16 -22 -18 -24 -2 -2 7 -1 6 3 -1 4
-8 8 -7 15 2z m188 5 c0 -2 -7 -6 -15 -10 -8 -3 -15 -1 -15 4 0 6 7 10 15 10
8 0 15 -2 15 -4z m-95 -26 c4 -6 -1 -7 -11 -3 -12 4 -15 3 -10 -5 4 -7 1 -12
-8 -12 -19 0 -21 16 -3 23 19 8 25 8 32 -3z m155 -57 c0 -8 -9 -7 -30 4 -17 8
-28 18 -25 23 7 11 55 -12 55 -27z m44 21 c3 -8 2 -12 -4 -9 -6 3 -10 10 -10
16 0 14 7 11 14 -7z m-922 -36 c-7 -7 -12 -8 -12 -2 0 6 3 14 7 17 3 4 9 5 12
2 2 -3 -1 -11 -7 -17z m688 2 c6 -11 9 -20 7 -20 -2 0 -12 9 -22 20 -10 11
-13 20 -7 20 6 0 16 -9 22 -20z m170 -10 c0 -5 -4 -10 -10 -10 -5 0 -10 5 -10
10 0 6 5 10 10 10 6 0 10 -4 10 -10z m-852 -48 c9 9 12 9 12 1 0 -7 -5 -15
-10 -18 -6 -4 -1 -15 12 -26 13 -12 17 -18 11 -14 -20 10 -36 -4 -23 -20 9
-11 7 -12 -9 -8 -19 5 -19 33 1 33 5 0 6 5 3 10 -10 16 -38 12 -32 -4 4 -10 0
-14 -12 -13 -11 1 -17 7 -14 14 3 7 -1 13 -8 13 -11 0 -11 3 1 10 8 5 11 10 5
10 -5 0 -3 4 4 9 9 6 22 6 31 1 11 -6 21 -5 28 2z m-14 -108 c9 -8 13 -21 9
-27 -4 -7 -9 -4 -13 7 -3 10 -9 17 -13 17 -21 -3 -28 0 -22 9 9 14 21 12 39
-6z m-14 -34 c0 -13 -11 -13 -30 0 -12 8 -11 10 8 10 12 0 22 -4 22 -10z m-24
-30 c0 -11 -5 -21 -12 -24 -7 -3 -9 5 -6 20 5 29 18 32 18 4z m44 10 c0 -5 -5
-10 -11 -10 -5 0 -7 5 -4 10 3 6 8 10 11 10 2 0 4 -4 4 -10z m10 -40 c0 -5 -5
-10 -11 -10 -5 0 -7 5 -4 10 3 6 8 10 11 10 2 0 4 -4 4 -10z m-55 -20 c4 -6
-1 -7 -12 -3 -15 6 -16 4 -5 -9 10 -13 10 -17 -4 -22 -9 -4 -19 -4 -22 -1 -3
3 1 5 9 5 11 0 11 2 -1 10 -20 13 -33 13 -25 0 4 -6 1 -9 -7 -8 -7 2 -12 -2
-11 -9 1 -6 -5 -10 -15 -8 -9 2 -19 4 -21 4 -10 2 20 26 32 26 7 1 11 5 10 10
-2 13 64 18 72 5z m40 -30 c3 -5 1 -10 -4 -10 -6 0 -11 5 -11 10 0 6 2 10 4
10 3 0 8 -4 11 -10z m-227 -84 c-10 -7 -15 -16 -11 -19 3 -4 1 -7 -5 -7 -6 0
-10 9 -9 20 1 12 7 18 14 16 7 -3 13 0 13 6 0 6 3 8 7 4 5 -4 0 -13 -9 -20z
m185 14 c3 6 4 5 3 -2 -4 -19 -23 -20 -30 -2 -5 14 -4 15 8 5 10 -8 16 -9 19
-1z m-313 -26 c0 -18 -25 -46 -34 -37 -3 4 -6 1 -6 -6 0 -7 -5 -9 -12 -5 -8 5
-5 13 10 25 12 9 22 22 22 28 0 6 5 11 10 11 6 0 10 -7 10 -16z m190 -2 c0
-12 3 -12 15 -2 8 6 20 10 27 7 9 -4 7 -6 -4 -6 -9 -1 -18 -7 -21 -13 -3 -10
-7 -10 -19 -1 -8 7 -17 10 -20 7 -3 -2 -8 1 -11 8 -3 9 3 14 14 14 11 0 19 -7
19 -14z m-47 -39 c-7 -3 -9 -12 -6 -21 3 -9 3 -14 -1 -11 -4 4 -8 16 -11 27
-3 16 0 19 13 15 9 -4 11 -8 5 -10z m-999 -10 c4 -9 2 -21 -4 -27 -8 -8 -9 -6
-5 7 6 13 2 17 -16 17 -19 0 -21 2 -9 10 21 14 27 12 34 -7z m-60 -9 c3 -8 2
-12 -4 -9 -6 3 -10 10 -10 16 0 14 7 11 14 -7z m1120 -3 c4 -5 -3 -7 -14 -4
-23 6 -26 13 -6 13 8 0 17 -4 20 -9z m-104 -39 c-5 -2 -7 -9 -4 -17 3 -7 0
-16 -7 -21 -8 -5 -10 -3 -4 6 4 7 2 16 -6 21 -10 6 -10 9 -2 9 8 0 10 7 6 17
-6 15 -5 16 9 3 9 -8 12 -16 8 -18z m-895 -12 c14 -16 16 -24 7 -42 -8 -18
-11 -19 -11 -5 -1 9 -5 17 -9 17 -5 0 -17 7 -28 15 -17 14 -15 14 16 0 33 -14
34 -14 13 1 -23 17 -30 34 -15 34 5 0 17 -9 27 -20z m845 10 c0 -5 -4 -10 -10
-10 -5 0 -10 5 -10 10 0 6 5 10 10 10 6 0 10 -4 10 -10z m131 -13 c-10 -9 -11
-8 -5 6 3 10 9 15 12 12 3 -3 0 -11 -7 -18z m-27 -2 c-4 -8 -11 -15 -16 -15
-6 0 -5 6 2 15 7 8 14 15 16 15 2 0 1 -7 -2 -15z m-154 -8 c0 -2 -10 -12 -22
-23 l-23 -19 19 23 c18 21 26 27 26 19z m25 -7 c-3 -5 -1 -10 4 -10 6 0 11 5
11 12 0 6 3 9 6 5 3 -3 1 -14 -5 -24 -6 -10 -11 -14 -11 -9 0 5 -7 3 -15 -4
-11 -9 -12 -17 -4 -31 12 -23 6 -24 -16 -3 -14 15 -14 18 6 35 12 10 19 19 15
19 -4 0 -4 5 -1 10 3 6 8 10 11 10 3 0 2 -4 -1 -10z m93 -24 c-10 -7 -14 -17
-10 -21 4 -5 1 -5 -6 -1 -10 6 -10 11 -1 22 6 8 17 14 23 14 6 0 3 -7 -6 -14z
m-51 -18 c-3 -8 -6 -5 -6 6 -1 11 2 17 5 13 3 -3 4 -12 1 -19z m-119 -12 c4
-4 7 -17 7 -29 1 -12 5 -29 10 -37 8 -13 6 -13 -8 -2 -9 8 -16 17 -15 20 2 13
-14 42 -23 42 -11 0 -7 -22 5 -31 4 -4 3 -10 -3 -13 -6 -4 -11 -3 -11 2 0 6
-6 12 -14 15 -10 4 -12 0 -8 -15 2 -11 -1 -24 -8 -28 -9 -6 -7 -10 9 -15 11
-3 21 -11 21 -17 0 -5 7 -7 16 -4 15 6 15 4 3 -10 -8 -10 -15 -12 -17 -5 -2 6
-9 11 -15 11 -7 0 -25 7 -41 15 -15 8 -31 13 -35 11 -3 -2 -14 7 -24 20 -10
13 -13 24 -7 24 6 0 8 5 4 12 -5 7 -2 9 8 6 8 -4 32 4 54 16 37 22 77 27 92
12z m145 -23 c-4 -10 -8 -12 -10 -6 -3 7 -11 9 -19 6 -8 -3 -14 -1 -14 4 0 5
11 10 25 11 19 1 23 -2 18 -15z m-324 -10 c-3 -19 2 -33 17 -47 11 -12 12 -16
2 -16 -17 0 -47 20 -31 20 7 0 10 7 7 15 -4 8 -15 15 -26 15 -10 0 -16 5 -13
10 7 12 46 14 44 3z m266 -21 c-3 -3 -11 0 -18 7 -9 10 -8 11 6 5 10 -3 15 -9
12 -12z m-48 -48 c-3 -3 -12 -4 -19 -1 -8 3 -5 6 6 6 11 1 17 -2 13 -5z m-135
-25 c29 -11 55 -23 57 -25 9 -8 -34 -33 -59 -34 -21 -1 -19 -4 18 -20 50 -23
53 -36 12 -45 -17 -4 -28 -10 -26 -13 2 -4 -12 -7 -31 -8 -19 0 -39 -7 -43
-15 -5 -7 -15 -14 -22 -15 -43 -3 -44 -4 -28 -14 9 -6 10 -10 3 -10 -6 0 -14
4 -17 9 -8 12 30 44 43 37 5 -4 13 -1 17 5 3 6 24 19 46 29 l40 17 -32 12
c-18 6 -36 8 -41 5 -16 -10 -9 23 9 43 9 10 13 12 7 4 -8 -12 -6 -13 8 -8 10
4 25 7 33 7 8 0 14 5 14 10 0 6 -3 9 -7 8 -15 -4 -73 21 -73 31 0 15 12 14 72
-10z m-472 -9 c6 -11 16 -20 22 -20 7 0 7 4 -1 14 -9 11 -9 16 0 22 8 4 9 3 5
-4 -4 -7 -1 -12 10 -12 13 0 14 -3 4 -15 -14 -17 -40 -20 -40 -6 0 5 -7 17
-16 25 -8 9 -11 16 -5 16 6 0 15 -9 21 -20z m735 0 c3 -5 1 -10 -4 -10 -6 0
-11 5 -11 10 0 6 2 10 4 10 3 0 8 -4 11 -10z m-746 -34 c-3 -3 -11 5 -18 17
-13 21 -12 21 5 5 10 -10 16 -20 13 -22z m721 3 c0 -6 -4 -7 -10 -4 -5 3 -10
11 -10 16 0 6 5 7 10 4 6 -3 10 -11 10 -16z m-743 -14 c0 -8 -4 -12 -9 -9 -5
3 -6 10 -3 15 9 13 12 11 12 -6z m414 -38 c-10 -9 -11 -8 -5 6 3 10 9 15 12
12 3 -3 0 -11 -7 -18z m-160 -56 c-17 -11 -5 -32 14 -25 8 3 20 0 28 -7 12
-12 11 -16 -9 -31 -22 -18 -59 -15 -48 4 4 5 11 5 19 -2 9 -7 16 -6 25 5 14
17 14 17 -20 20 -14 2 -31 -2 -37 -7 -9 -7 -13 -7 -13 1 0 6 4 11 9 11 5 0 11
9 14 20 3 11 11 20 19 20 11 0 10 -2 -1 -9z m-76 -31 c3 -5 1 -10 -4 -10 -6 0
-11 5 -11 10 0 6 2 10 4 10 3 0 8 -4 11 -10z m375 -10 c0 -5 -5 -10 -11 -10
-5 0 -7 5 -4 10 3 6 8 10 11 10 2 0 4 -4 4 -10z m-397 -66 c-6 -16 -19 -18
-28 -4 -4 6 -3 10 2 9 22 -4 23 3 2 22 l-24 20 27 -16 c16 -10 25 -22 21 -31z
m351 31 c11 -8 16 -15 10 -15 -5 0 -18 7 -28 15 -11 8 -16 15 -10 15 5 0 18
-7 28 -15z m-194 -10 c-7 -9 -15 -13 -19 -10 -3 3 1 10 9 15 21 14 24 12 10
-5z m83 0 c-3 -9 -8 -14 -10 -11 -3 3 -2 9 2 15 9 16 15 13 8 -4z m78 -2 c13
-16 12 -17 -3 -4 -17 13 -22 21 -14 21 2 0 10 -8 17 -17z m79 -113 c0 -5 -2
-10 -4 -10 -3 0 -8 5 -11 10 -3 6 -1 10 4 10 6 0 11 -4 11 -10z"/>
<path d="M4180 3155 c0 -9 6 -12 17 -8 12 5 14 3 8 -7 -5 -9 -4 -11 4 -6 9 6
9 11 0 22 -15 18 -29 18 -29 -1z"/>
<path d="M3030 2110 c0 -5 7 -10 16 -10 8 0 12 5 9 10 -3 6 -10 10 -16 10 -5
0 -9 -4 -9 -10z"/>
<path d="M3761 5351 c-8 -14 -7 -22 4 -31 13 -11 15 -8 15 19 0 36 -5 39 -19
12z"/>
<path d="M4062 5326 c7 -8 15 -12 17 -11 5 6 -10 25 -20 25 -5 0 -4 -6 3 -14z"/>
<path d="M3720 5316 c0 -8 -5 -27 -12 -41 -9 -21 -18 -25 -52 -25 -49 0 -53
-14 -29 -98 8 -29 13 -66 10 -81 -3 -15 -2 -33 3 -41 6 -9 5 -17 -3 -22 -9 -6
-9 -8 1 -8 8 0 10 -8 6 -24 -8 -33 26 -46 45 -17 7 12 20 21 28 21 10 0 14 7
10 20 -3 11 -2 20 1 20 4 0 20 25 36 56 31 60 93 111 121 100 9 -3 13 -2 10 4
-3 6 -4 10 -1 10 2 0 12 3 22 7 13 5 16 3 11 -9 -4 -13 -1 -15 19 -12 15 3 23
1 20 -5 -4 -5 -2 -12 4 -16 5 -3 10 0 10 7 0 10 2 10 9 -1 7 -10 9 -7 8 12 -2
23 -7 27 -37 29 -54 2 -83 -2 -99 -15 -12 -10 -14 -8 -9 9 3 14 -1 25 -13 33
-11 6 -18 8 -17 4 4 -12 -45 -58 -59 -55 -16 4 -24 -12 -37 -71 -11 -50 -36
-77 -36 -39 0 12 -6 27 -13 34 -17 17 -38 78 -31 89 9 15 24 10 22 -8 -3 -38
2 -64 12 -58 6 3 10 17 10 30 0 16 4 23 13 19 10 -4 13 3 9 25 -2 17 2 39 12
53 18 25 21 64 6 73 -5 3 -10 -1 -10 -9z"/>
<path d="M4130 5311 c0 -6 5 -13 10 -16 6 -3 10 1 10 9 0 9 -4 16 -10 16 -5 0
-10 -4 -10 -9z"/>
<path d="M3869 5294 c19 -14 32 -42 13 -30 -5 3 -9 0 -9 -7 0 -7 11 -13 24
-13 13 -1 23 2 23 7 0 4 8 6 18 2 14 -5 15 -3 5 7 -10 10 -15 11 -27 1 -12
-10 -15 -7 -20 16 -5 20 -13 29 -28 30 l-21 2 22 -15z"/>
<path d="M4041 5294 c0 -11 3 -14 6 -6 3 7 2 16 -1 19 -3 4 -6 -2 -5 -13z"/>
<path d="M3985 5240 c-3 -6 1 -7 9 -4 18 7 21 14 7 14 -6 0 -13 -4 -16 -10z"/>
<path d="M4025 5221 c-3 -5 -1 -12 5 -16 5 -3 10 1 10 9 0 18 -6 21 -15 7z"/>
<path d="M4056 5091 c-4 -5 3 -7 14 -4 23 6 26 13 6 13 -8 0 -17 -4 -20 -9z"/>
<path d="M3360 5045 c7 -8 16 -15 21 -15 5 0 6 7 3 15 -4 8 -13 15 -21 15 -13
0 -13 -3 -3 -15z"/>
<path d="M3300 4966 c0 -2 7 -7 16 -10 8 -3 12 -2 9 4 -6 10 -25 14 -25 6z"/>
<path d="M3380 4950 c-12 -8 -10 -10 8 -10 13 0 20 4 17 10 -7 12 -6 12 -25 0z"/>
<path d="M3260 4940 c-23 -7 -23 -8 -3 -9 12 -1 25 4 28 9 3 6 5 10 3 9 -2 -1
-14 -5 -28 -9z"/>
<path d="M3279 4913 c-12 -15 -12 -16 6 -9 23 8 25 9 43 7 7 0 10 -5 7 -11 -3
-5 3 -10 14 -10 29 0 26 13 -6 28 -36 16 -48 15 -64 -5z"/>
<path d="M3155 4780 c3 -5 8 -10 11 -10 2 0 4 5 4 10 0 6 -5 10 -11 10 -5 0
-7 -4 -4 -10z"/>
<path d="M3307 4576 c-3 -7 1 -23 9 -34 13 -18 12 -20 -6 -15 -19 5 -19 3 -10
-23 15 -39 29 -54 46 -47 9 3 14 -1 14 -11 0 -24 30 -66 46 -66 22 0 16 20
-12 47 -15 14 -20 24 -13 23 27 -4 39 0 39 14 0 8 -7 17 -16 20 -8 3 -13 10
-9 15 3 5 0 13 -6 17 -9 5 -10 -1 -5 -21 6 -25 5 -27 -8 -16 -9 8 -16 19 -16
26 0 7 -7 18 -15 25 -9 7 -14 19 -11 26 3 7 -1 17 -8 24 -10 8 -15 7 -19 -4z
m36 -87 c4 -16 3 -18 -9 -8 -7 6 -11 15 -8 20 8 13 11 11 17 -12z"/>
<path d="M4541 4560 c0 -8 12 -30 28 -49 27 -33 29 -34 35 -13 4 12 3 30 -3
39 -7 12 -10 13 -11 4 0 -11 -3 -11 -15 -1 -8 7 -15 9 -16 4 0 -5 -4 0 -9 11
-6 13 -9 15 -9 5z"/>
<path d="M4617 4501 c-14 -24 -14 -31 -3 -40 18 -15 27 -3 20 28 -5 21 -3 23
6 11 10 -13 11 -13 7 2 -3 9 -1 19 6 22 7 3 6 5 -3 5 -9 1 -23 -12 -33 -28z"/>
<path d="M3966 4455 c4 -8 8 -15 10 -15 2 0 4 7 4 15 0 8 -4 15 -10 15 -5 0
-7 -7 -4 -15z"/>
<path d="M4497 4434 c3 -7 9 -14 14 -14 14 0 10 17 -5 23 -10 4 -13 1 -9 -9z"/>
<path d="M3330 4432 c0 -4 7 -17 15 -28 8 -12 12 -23 10 -26 -3 -3 1 -5 9 -5
10 0 9 8 -6 34 -20 33 -28 40 -28 25z"/>
<path d="M3985 4431 c-3 -6 -5 -11 -3 -12 27 -6 38 -5 35 4 -5 15 -24 20 -32
8z"/>
<path d="M4598 4433 c7 -3 16 -2 19 1 4 3 -2 6 -13 5 -11 0 -14 -3 -6 -6z"/>
<path d="M4094 4415 c-5 -11 -10 -12 -24 -2 -15 9 -23 7 -40 -8 -18 -16 -19
-20 -5 -27 8 -5 15 -16 15 -23 0 -8 6 -15 14 -15 8 0 22 -8 32 -17 13 -14 18
-15 22 -5 3 10 8 8 18 -6 15 -21 54 -36 54 -20 0 5 -5 18 -10 29 -7 12 -7 25
-1 37 7 14 6 19 -4 19 -7 0 -11 -6 -8 -14 3 -7 0 -13 -6 -13 -6 0 -11 9 -11
21 0 11 -4 18 -8 15 -4 -2 -14 -1 -22 5 -8 5 -10 9 -4 9 6 0 11 7 11 15 0 19
-16 19 -23 0z"/>
<path d="M4126 4403 c-6 -14 -5 -15 5 -6 7 7 10 15 7 18 -3 3 -9 -2 -12 -12z"/>
<path d="M4517 4385 c3 -8 9 -12 14 -9 12 7 11 11 -5 17 -10 4 -13 1 -9 -8z"/>
<path d="M4200 4366 c0 -2 7 -6 15 -10 8 -3 15 -1 15 4 0 6 -7 10 -15 10 -8 0
-15 -2 -15 -4z"/>
<path d="M4196 4335 c4 -8 10 -15 15 -15 4 0 6 7 3 15 -4 8 -10 15 -15 15 -4
0 -6 -7 -3 -15z"/>
<path d="M1543 4225 c-3 -9 -3 -18 -1 -21 3 -3 8 4 11 16 6 23 -1 27 -10 5z"/>
<path d="M3460 4219 c0 -5 5 -7 10 -4 6 3 10 8 10 11 0 2 -4 4 -10 4 -5 0 -10
-5 -10 -11z"/>
<path d="M1532 4165 c0 -16 2 -22 5 -12 2 9 2 23 0 30 -3 6 -5 -1 -5 -18z"/>
<path d="M3435 4150 c-3 -6 1 -7 9 -4 18 7 21 14 7 14 -6 0 -13 -4 -16 -10z"/>
<path d="M1750 4140 c0 -5 -3 -15 -6 -24 -4 -11 0 -16 14 -16 27 0 36 37 11
43 -11 3 -19 1 -19 -3z"/>
<path d="M1460 4131 c0 -6 4 -13 10 -16 6 -3 7 1 4 9 -7 18 -14 21 -14 7z"/>
<path d="M1506 4127 c3 -10 9 -15 12 -12 3 3 0 11 -7 18 -10 9 -11 8 -5 -6z"/>
<path d="M1297 4114 c2 -7 11 -10 19 -7 19 7 18 10 -5 16 -13 3 -18 1 -14 -9z"/>
<path d="M3508 4111 c-14 -17 -14 -20 3 -35 11 -9 19 -12 19 -6 0 5 -5 12 -10
15 -7 4 -7 13 0 26 13 24 9 24 -12 0z"/>
<path d="M1336 4087 c3 -10 9 -15 12 -12 3 3 0 11 -7 18 -10 9 -11 8 -5 -6z"/>
<path d="M1821 4033 c-25 -36 -30 -48 -19 -54 20 -13 31 -11 25 5 -3 8 0 20 8
26 13 11 29 59 22 66 -2 2 -18 -17 -36 -43z"/>
<path d="M3505 4029 c-11 -17 1 -21 15 -4 8 9 8 15 2 15 -6 0 -14 -5 -17 -11z"/>
<path d="M1288 3993 c6 -2 18 -2 25 0 6 3 1 5 -13 5 -14 0 -19 -2 -12 -5z"/>
<path d="M3523 3973 c-17 -13 -16 -13 4 -4 27 14 36 14 28 1 -9 -14 11 -12 23
3 15 18 -32 19 -55 0z"/>
<path d="M3564 3810 c0 -13 4 -14 22 -6 25 12 23 25 -4 23 -10 0 -18 -8 -18
-17z"/>
<path d="M3547 3767 c-2 -6 1 -17 8 -24 10 -9 13 -6 13 13 0 25 -13 32 -21 11z"/>
<path d="M3532 3723 c-6 -3 -9 -9 -6 -15 4 -6 10 -5 15 3 7 11 9 10 9 -3 0
-10 5 -18 10 -18 6 0 10 4 10 9 0 14 -24 29 -38 24z"/>
<path d="M4304 3624 c3 -8 6 -17 6 -20 0 -2 6 -1 14 2 8 3 24 1 35 -6 17 -9
21 -8 21 5 0 8 -4 15 -10 15 -16 0 -23 2 -49 11 -19 8 -22 7 -17 -7z"/>
<path d="M3520 3604 c-17 -9 -20 -14 -9 -14 9 0 22 7 29 15 15 18 13 18 -20
-1z"/>
<path d="M4275 3600 c-3 -6 1 -7 9 -4 18 7 21 14 7 14 -6 0 -13 -4 -16 -10z"/>
<path d="M3550 3585 c0 -5 5 -17 10 -25 5 -8 10 -10 10 -5 0 6 -5 17 -10 25
-5 8 -10 11 -10 5z"/>
<path d="M3981 3574 c0 -11 3 -14 6 -6 3 7 2 16 -1 19 -3 4 -6 -2 -5 -13z"/>
<path d="M3577 3546 c-4 -10 -1 -13 8 -9 8 3 12 9 9 14 -7 12 -11 11 -17 -5z"/>
<path d="M5222 3525 c-14 -31 -15 -46 -2 -25 5 8 12 12 15 8 8 -7 -16 -57 -27
-57 -5 -1 -12 -1 -17 -1 -5 0 -11 -21 -15 -47 -4 -27 -14 -61 -22 -78 -9 -19
-13 -22 -10 -9 2 13 -2 21 -11 21 -10 0 -13 -7 -9 -22 7 -27 -3 -38 -20 -24
-9 7 -14 5 -18 -8 -3 -10 -21 -28 -40 -40 -25 -16 -35 -31 -41 -60 -6 -37 -11
-53 -55 -202 -24 -81 -88 -206 -132 -261 -40 -49 -35 -61 7 -14 52 59 144 198
186 280 20 40 40 70 44 66 5 -4 5 -2 2 5 -9 15 10 66 22 59 9 -6 32 36 46 82
4 13 9 21 13 18 10 -10 53 77 48 97 -3 12 0 17 9 14 8 -4 11 1 8 12 -2 10 7
50 21 91 26 74 33 120 18 120 -5 0 -14 -11 -20 -25z"/>
<path d="M3541 3533 c-1 -6 -4 -20 -7 -30 -5 -17 -5 -17 6 0 6 10 9 23 6 30
-3 9 -5 9 -5 0z"/>
<path d="M3590 3485 c-10 -12 -10 -15 4 -15 9 0 16 7 16 15 0 8 -2 15 -4 15
-2 0 -9 -7 -16 -15z"/>
<path d="M894 3436 c-3 -8 -4 -23 -2 -33 3 -11 6 -6 9 15 6 34 2 42 -7 18z"/>
<path d="M4440 3423 c1 -21 15 -30 27 -18 10 10 9 14 -3 19 -20 8 -24 8 -24
-1z"/>
<path d="M3522 3390 c0 -14 2 -19 5 -12 2 6 2 18 0 25 -3 6 -5 1 -5 -13z"/>
<path d="M4280 3396 c0 -2 7 -9 15 -16 9 -7 15 -8 15 -2 0 5 -7 12 -15 16 -8
3 -15 4 -15 2z"/>
<path d="M1001 3355 c-17 -20 -31 -41 -31 -48 0 -7 6 -3 12 8 6 11 22 32 36
48 14 15 23 27 20 27 -3 0 -20 -16 -37 -35z"/>
<path d="M3535 3320 c-3 -5 -2 -10 4 -10 5 0 13 5 16 10 3 6 2 10 -4 10 -5 0
-13 -4 -16 -10z"/>
<path d="M780 3295 c0 -8 4 -15 10 -15 5 0 7 7 4 15 -4 8 -8 15 -10 15 -2 0
-4 -7 -4 -15z"/>
<path d="M4698 3303 c7 -3 16 -2 19 1 4 3 -2 6 -13 5 -11 0 -14 -3 -6 -6z"/>
<path d="M4750 3306 c0 -2 7 -7 16 -10 8 -3 12 -2 9 4 -6 10 -25 14 -25 6z"/>
<path d="M4838 3303 c7 -3 16 -2 19 1 4 3 -2 6 -13 5 -11 0 -14 -3 -6 -6z"/>
<path d="M1270 3289 c0 -5 9 -9 20 -9 11 0 20 2 20 4 0 2 -9 6 -20 9 -11 3
-20 1 -20 -4z"/>
<path d="M3495 3290 c-3 -5 -1 -10 4 -10 6 0 11 5 11 10 0 6 -2 10 -4 10 -3 0
-8 -4 -11 -10z"/>
<path d="M4594 3284 c3 -8 6 -18 6 -20 0 -2 5 -4 10 -4 16 0 11 27 -6 34 -12
5 -15 2 -10 -10z"/>
<path d="M685 3270 c3 -5 16 -15 28 -21 22 -12 22 -12 3 10 -19 21 -43 30 -31
11z"/>
<path d="M750 3265 c0 -5 5 -17 10 -25 5 -8 10 -10 10 -5 0 6 -5 17 -10 25 -5
8 -10 11 -10 5z"/>
<path d="M3468 3263 c7 -3 16 -2 19 1 4 3 -2 6 -13 5 -11 0 -14 -3 -6 -6z"/>
<path d="M3205 3240 c-3 -5 -1 -10 4 -10 6 0 11 5 11 10 0 6 -2 10 -4 10 -3 0
-8 -4 -11 -10z"/>
<path d="M817 3210 c3 -11 9 -17 15 -14 5 3 4 12 -3 20 -16 19 -18 18 -12 -6z"/>
<path d="M3446 3205 c4 -8 8 -15 10 -15 2 0 4 7 4 15 0 8 -4 15 -10 15 -5 0
-7 -7 -4 -15z"/>
<path d="M4815 3174 c-10 -8 -16 -14 -13 -14 4 0 14 -3 24 -7 11 -4 15 -3 11
4 -4 6 -2 13 5 15 7 3 8 7 2 10 -5 4 -18 0 -29 -8z"/>
<path d="M3505 3120 c3 -5 8 -10 11 -10 2 0 4 5 4 10 0 6 -5 10 -11 10 -5 0
-7 -4 -4 -10z"/>
<path d="M3179 3103 c-13 -16 -12 -17 4 -4 16 13 21 21 13 21 -2 0 -10 -8 -17
-17z"/>
<path d="M3427 3061 c-4 -17 -3 -21 5 -13 5 5 8 16 6 23 -3 8 -7 3 -11 -10z"/>
<path d="M3510 3074 c0 -4 8 -13 18 -20 16 -12 15 -13 -8 -14 -16 -1 -19 -4
-10 -7 8 -3 18 -11 22 -17 5 -7 8 -4 8 7 0 9 4 17 10 17 5 0 2 9 -7 20 -17 20
-33 26 -33 14z"/>
<path d="M566 3044 c-9 -23 -8 -24 17 -33 14 -5 25 -4 29 3 12 17 10 22 -16
34 -20 9 -25 8 -30 -4z"/>
<path d="M3450 3032 c0 -12 19 -26 26 -19 2 2 -2 10 -11 17 -9 8 -15 8 -15 2z"/>
<path d="M3480 2980 c0 -5 4 -10 9 -10 6 0 13 5 16 10 3 6 -1 10 -9 10 -9 0
-16 -4 -16 -10z"/>
<path d="M3345 2900 c-3 -6 1 -7 9 -4 18 7 21 14 7 14 -6 0 -13 -4 -16 -10z"/>
<path d="M3460 2870 c0 -5 5 -10 11 -10 5 0 7 5 4 10 -3 6 -8 10 -11 10 -2 0
-4 -4 -4 -10z"/>
<path d="M793 2819 c0 -19 2 -28 5 -21 7 22 18 13 17 -15 0 -29 24 -40 33 -15
2 7 -2 11 -10 10 -7 -2 -13 4 -13 13 0 9 -7 26 -16 39 l-16 24 0 -35z"/>
<path d="M874 2840 c-37 -14 -36 -37 2 -66 41 -32 55 -24 32 17 -17 29 -12 39
10 17 7 -7 12 -8 12 -2 0 22 -34 42 -56 34z"/>
<path d="M3333 2835 c0 -8 4 -12 9 -9 5 3 6 10 3 15 -9 13 -12 11 -12 -6z"/>
<path d="M3455 2820 c-3 -5 1 -10 9 -10 9 0 16 5 16 10 0 6 -4 10 -9 10 -6 0
-13 -4 -16 -10z"/>
<path d="M3293 2791 c-10 -16 -9 -20 3 -25 23 -9 31 -7 15 3 -12 8 -12 12 -2
25 8 9 9 16 5 16 -5 0 -15 -9 -21 -19z"/>
<path d="M3120 2770 c0 -5 5 -10 11 -10 5 0 7 5 4 10 -3 6 -8 10 -11 10 -2 0
-4 -4 -4 -10z"/>
<path d="M3160 2760 c-8 -5 -12 -12 -9 -15 4 -3 12 1 19 10 14 17 11 19 -10 5z"/>
<path d="M3407 2755 c3 -8 9 -12 14 -9 12 7 11 11 -5 17 -10 4 -13 1 -9 -8z"/>
<path d="M805 2730 c-7 -12 44 -62 56 -54 15 9 10 27 -5 21 -8 -3 -20 1 -26 9
-10 11 -10 14 -1 14 7 0 9 5 6 10 -8 13 -22 13 -30 0z"/>
<path d="M3430 2725 c-7 -9 -8 -15 -2 -15 5 0 12 7 16 15 3 8 4 15 2 15 -2 0
-9 -7 -16 -15z"/>
<path d="M4709 2723 c-13 -17 -13 -17 6 -3 11 8 22 16 24 17 2 2 0 3 -6 3 -6
0 -17 -8 -24 -17z"/>
<path d="M3468 2723 c6 -2 18 -2 25 0 6 3 1 5 -13 5 -14 0 -19 -2 -12 -5z"/>
<path d="M4527 2714 c2 -7 -1 -15 -8 -20 -8 -4 -10 -3 -5 4 4 7 1 12 -8 12
-18 0 -22 -25 -6 -35 6 -4 8 -10 5 -15 -3 -5 -1 -11 5 -15 5 -3 10 -11 10 -17
0 -7 -5 -7 -14 1 -11 9 -15 7 -19 -8 -4 -17 0 -19 22 -16 18 2 28 -2 28 -10 0
-9 -12 -11 -41 -7 -24 3 -37 1 -33 -4 5 -5 14 -9 20 -9 5 0 12 -6 15 -12 2 -7
-1 -13 -8 -13 -6 0 -9 -4 -5 -9 3 -6 15 -8 26 -6 15 3 19 0 15 -10 -3 -8 -1
-17 5 -20 5 -4 7 -10 4 -15 -7 -11 20 -31 36 -28 8 2 16 8 19 15 3 7 10 9 18
5 9 -7 9 -12 -3 -28 -12 -16 -16 -17 -24 -4 -9 13 -11 13 -15 0 -7 -20 -3 -45
12 -63 7 -8 10 -21 7 -29 -4 -9 1 -18 9 -21 9 -4 16 -18 16 -35 0 -15 7 -37
15 -48 14 -18 14 -18 15 8 0 15 -5 30 -10 33 -8 5 -7 11 0 20 7 8 9 19 5 24
-3 6 -1 20 5 31 6 12 7 20 1 20 -5 0 -8 11 -5 25 3 18 0 25 -11 25 -12 0 -14
4 -7 16 5 9 7 26 4 38 -4 21 -4 21 11 1 15 -19 16 -18 12 23 -2 24 -11 55 -20
69 -14 21 -15 29 -5 48 7 13 10 28 6 33 -3 6 0 12 6 15 8 2 1 10 -14 17 -16 7
-28 17 -28 21 0 4 -15 7 -34 6 -22 -1 -32 -5 -29 -13z m33 -25 c0 -5 -4 -9 -8
-9 -5 0 -9 7 -9 15 0 8 4 12 9 9 4 -3 8 -9 8 -15z m43 -19 c3 -11 1 -20 -4
-20 -5 0 -9 9 -9 20 0 11 2 20 4 20 2 0 6 -9 9 -20z m-7 -55 c0 -23 -1 -24
-15 -10 -14 14 -14 17 -1 25 8 5 15 10 16 10 0 0 0 -11 0 -25z m9 -55 c4 -11
11 -18 16 -15 5 4 9 2 9 -4 0 -24 -20 -19 -33 9 -9 16 -12 30 -7 30 5 0 12 -9
15 -20z m-32 -20 c4 -17 -10 -30 -32 -30 -5 0 -8 48 -2 57 5 8 30 -12 34 -27z
m50 -146 c-3 -7 -11 -10 -19 -7 -20 8 -17 22 5 20 10 0 17 -7 14 -13z"/>
<path d="M720 2698 c0 -21 18 -43 27 -34 11 11 11 30 -2 38 -15 11 -25 9 -25
-4z"/>
<path d="M3380 2682 c-19 -19 -20 -22 -5 -14 37 21 47 29 39 34 -5 2 -20 -7
-34 -20z"/>
<path d="M3265 2680 c-3 -5 -1 -10 4 -10 6 0 11 5 11 10 0 6 -2 10 -4 10 -3 0
-8 -4 -11 -10z"/>
<path d="M4704 2669 c0 -10 6 -19 13 -19 7 0 13 4 13 9 0 5 -6 13 -13 19 -10
8 -13 6 -13 -9z"/>
<path d="M790 2671 c0 -5 9 -11 21 -14 16 -4 18 -3 8 9 -13 16 -29 19 -29 5z"/>
<path d="M3205 2660 c3 -5 8 -10 11 -10 2 0 4 5 4 10 0 6 -5 10 -11 10 -5 0
-7 -4 -4 -10z"/>
<path d="M4450 2661 c0 -5 7 -11 15 -15 8 -3 15 -1 15 3 0 5 -7 11 -15 15 -8
3 -15 1 -15 -3z"/>
<path d="M3264 2649 c-4 -7 -3 -9 4 -5 5 3 13 0 15 -6 4 -9 6 -10 6 -1 1 17
-16 25 -25 12z"/>
<path d="M3300 2656 c0 -2 8 -10 18 -17 15 -13 16 -12 3 4 -13 16 -21 21 -21
13z"/>
<path d="M3390 2656 c0 -2 9 -6 20 -9 11 -3 18 -1 14 4 -5 9 -34 13 -34 5z"/>
<path d="M796 2635 c4 -8 10 -12 15 -9 11 6 2 24 -11 24 -5 0 -7 -7 -4 -15z"/>
<path d="M745 2630 c4 -6 11 -8 16 -5 14 9 11 15 -7 15 -8 0 -12 -5 -9 -10z"/>
<path d="M3205 2620 c-3 -5 -1 -10 4 -10 6 0 11 5 11 10 0 6 -2 10 -4 10 -3 0
-8 -4 -11 -10z"/>
<path d="M3244 2622 c4 -7 3 -12 -2 -12 -5 0 -12 -9 -15 -20 -7 -26 -3 -25 17
4 11 18 13 27 4 32 -7 4 -8 3 -4 -4z"/>
<path d="M2840 2609 c0 -5 5 -7 10 -4 6 3 10 8 10 11 0 2 -4 4 -10 4 -5 0 -10
-5 -10 -11z"/>
<path d="M3266 2603 c-6 -14 -5 -15 5 -6 7 7 10 15 7 18 -3 3 -9 -2 -12 -12z"/>
<path d="M4635 2609 c-19 -9 -19 -9 2 -5 12 2 24 -1 27 -8 3 -8 5 -8 5 1 1 17
-11 22 -34 12z"/>
<path d="M792 2591 c-11 -7 -11 -9 2 -14 10 -4 16 -1 16 8 0 17 -1 17 -18 6z"/>
<path d="M3402 2574 c-7 -8 -8 -14 -3 -14 10 0 25 19 20 25 -2 1 -10 -3 -17
-11z"/>
<path d="M3170 2569 c0 -5 5 -7 10 -4 6 3 10 8 10 11 0 2 -4 4 -10 4 -5 0 -10
-5 -10 -11z"/>
<path d="M4217 2573 c-11 -10 -8 -43 3 -43 6 0 10 -9 10 -20 0 -11 7 -20 15
-20 9 0 12 -6 9 -15 -4 -8 -1 -15 4 -15 6 0 12 8 14 18 2 10 6 13 10 6 4 -6 0
-23 -8 -39 -10 -20 -12 -31 -4 -39 8 -8 9 -6 5 7 -4 10 -2 17 4 17 6 0 11 7
11 16 0 10 6 14 15 10 10 -4 15 1 15 14 0 11 7 20 15 20 8 0 15 9 15 21 0 11
4 17 10 14 6 -3 7 1 4 10 -4 9 -9 13 -12 11 -3 -3 -11 -1 -19 5 -10 9 -13 8
-13 -2 0 -9 -3 -10 -8 -3 -11 17 -51 36 -62 29 -6 -3 -10 -14 -10 -23 0 -14
-2 -15 -9 -2 -6 8 -7 18 -5 22 6 10 0 11 -9 1z m122 -67 c-2 -2 -15 -7 -29
-10 l-25 -7 25 15 c21 12 42 14 29 2z"/>
<path d="M3914 2548 l-19 -23 23 19 c21 18 27 26 19 26 -2 0 -12 -10 -23 -22z"/>
<path d="M2976 2547 c3 -10 9 -15 12 -12 3 3 0 11 -7 18 -10 9 -11 8 -5 -6z"/>
<path d="M3210 2530 c6 -11 12 -20 14 -20 2 0 2 9 -1 20 -3 11 -9 20 -15 20
-5 0 -4 -9 2 -20z"/>
<path d="M3160 2526 c0 -2 7 -7 16 -10 8 -3 12 -2 9 4 -6 10 -25 14 -25 6z"/>
<path d="M3261 2514 c0 -11 3 -14 6 -6 3 7 2 16 -1 19 -3 4 -6 -2 -5 -13z"/>
<path d="M2890 2510 c0 -5 5 -10 11 -10 5 0 7 5 4 10 -3 6 -8 10 -11 10 -2 0
-4 -4 -4 -10z"/>
<path d="M2960 2514 c0 -13 18 -39 24 -34 2 3 -2 14 -10 24 -8 11 -14 16 -14
10z"/>
<path d="M4042 2507 c-29 -17 -59 -66 -54 -90 3 -16 10 -18 40 -12 21 4 45 14
55 22 20 18 23 63 5 81 -15 15 -17 15 -46 -1z"/>
<path d="M3137 2493 c3 -7 11 -13 19 -13 7 0 11 6 8 13 -3 8 -11 14 -18 14 -8
0 -12 -6 -9 -14z"/>
<path d="M4196 2495 c-3 -9 0 -15 9 -15 8 0 15 7 15 15 0 8 -4 15 -9 15 -5 0
-11 -7 -15 -15z"/>
<path d="M2940 2493 c0 -6 8 -17 18 -24 16 -13 16 -13 2 6 -8 11 -16 22 -17
24 -2 2 -3 0 -3 -6z"/>
<path d="M3080 2490 c0 -5 5 -10 10 -10 6 0 10 5 10 10 0 6 -4 10 -10 10 -5 0
-10 -4 -10 -10z"/>
<path d="M3286 2492 c-3 -5 1 -9 9 -9 8 0 12 4 9 9 -3 4 -7 8 -9 8 -2 0 -6 -4
-9 -8z"/>
<path d="M2895 2480 c-3 -5 -1 -10 4 -10 6 0 11 5 11 10 0 6 -2 10 -4 10 -3 0
-8 -4 -11 -10z"/>
<path d="M3365 2480 c-3 -6 1 -7 9 -4 18 7 21 14 7 14 -6 0 -13 -4 -16 -10z"/>
<path d="M4116 2482 c-4 -7 -2 -12 3 -12 6 0 11 -7 11 -17 0 -9 3 -14 6 -10
12 12 30 -18 26 -42 -2 -19 -1 -22 6 -12 5 7 14 11 20 7 5 -3 12 3 15 14 3 13
10 18 21 14 12 -4 16 0 16 15 0 25 -22 24 -32 -1 -10 -25 -28 -22 -29 5 0 12
-3 16 -6 9 -4 -10 -8 -10 -19 -1 -8 6 -11 16 -7 22 3 5 1 7 -5 3 -5 -3 -12 -1
-14 6 -3 9 -6 9 -12 0z"/>
<path d="M2158 2466 c-19 -14 -23 -26 -10 -26 4 0 13 9 20 20 14 23 13 24 -10
6z"/>
<path d="M3105 2460 c-3 -5 1 -10 10 -10 9 0 13 5 10 10 -3 6 -8 10 -10 10 -2
0 -7 -4 -10 -10z"/>
<path d="M3226 2455 c-11 -8 -17 -17 -14 -20 2 -3 13 4 23 15 21 23 18 25 -9
5z"/>
<path d="M4830 2439 l24 -32 -27 7 c-25 6 -26 5 -21 -26 3 -18 6 -38 6 -45 1
-7 5 -10 9 -7 4 2 10 -2 12 -8 3 -8 6 -6 6 5 1 9 -3 17 -9 17 -5 0 -10 5 -10
10 0 6 10 10 21 10 16 0 20 -5 16 -20 -3 -11 -2 -18 3 -15 10 6 22 -38 26
-100 2 -43 1 -46 -8 -22 -5 15 -17 27 -26 26 -11 0 -12 -2 -4 -6 6 -2 12 -13
12 -22 0 -21 35 -55 47 -48 5 3 14 -11 19 -32 9 -34 9 -38 -7 -34 -15 4 -17 0
-13 -30 3 -25 0 -37 -12 -41 -8 -3 -13 -2 -10 2 2 4 -2 18 -11 32 -8 14 -12
17 -9 8 3 -10 1 -18 -4 -18 -6 0 -10 5 -10 11 0 5 -4 8 -10 4 -5 -3 -6 -13 -3
-23 6 -15 5 -15 -10 -3 -20 16 -22 3 -3 -22 12 -15 11 -21 -7 -42 -26 -29 -32
-26 -16 8 8 19 8 32 0 54 -11 27 -11 27 -7 -10 3 -22 1 -35 -5 -32 -5 4 -9 -3
-9 -14 0 -22 -34 -46 -50 -36 -6 4 -7 -1 -3 -12 6 -16 5 -16 -10 -4 -11 9 -17
10 -17 2 0 -6 3 -11 8 -12 4 0 16 -2 27 -4 10 -2 26 1 35 8 8 6 12 7 8 3 -4
-5 -3 -15 3 -23 9 -10 7 -13 -6 -13 -12 0 -15 -5 -10 -17 11 -25 8 -54 -5 -67
-8 -8 -9 -6 -5 7 8 19 -10 24 -21 5 -4 -7 -9 -26 -10 -43 -2 -16 0 -24 3 -17
2 6 9 10 14 6 5 -3 9 0 9 5 0 6 5 11 11 11 6 0 8 -9 4 -22 -5 -18 -4 -20 4 -8
10 13 11 13 11 0 0 -12 2 -12 9 -1 6 10 13 10 28 2 11 -5 23 -7 27 -3 4 3 2
-6 -3 -22 -6 -15 -9 -32 -6 -36 3 -5 -6 -7 -21 -4 -15 3 -23 1 -20 -5 4 -5 2
-12 -4 -16 -5 -3 -10 -11 -10 -18 0 -6 7 -2 15 9 14 19 15 19 21 -3 3 -13 10
-23 15 -23 5 0 6 7 3 15 -4 8 -2 15 4 15 6 0 13 -6 15 -12 4 -10 6 -10 6 0 1
6 9 12 19 12 9 0 13 -4 7 -8 -13 -9 -17 -125 -4 -116 5 3 16 0 24 -6 12 -10
15 -10 16 1 0 8 4 5 9 -6 6 -13 9 -15 9 -5 1 10 6 7 17 -9 13 -18 18 -20 25
-10 7 11 11 11 17 2 5 -8 13 -9 22 -3 8 5 21 5 32 -1 10 -5 18 -6 18 -1 0 10
65 10 75 0 9 -9 36 2 30 13 -6 9 29 4 48 -7 8 -5 8 -2 -2 9 -7 9 -10 17 -7 17
4 0 0 7 -8 16 -18 18 -21 34 -5 34 6 0 2 12 -9 28 -10 15 -24 42 -32 60 -11
28 -41 56 -62 57 -17 1 -15 11 2 12 11 1 20 -3 20 -9 0 -6 2 -9 5 -6 6 5 -18
68 -31 80 -4 4 -8 22 -9 40 -2 18 -8 34 -14 36 -6 2 -11 8 -11 13 0 6 5 7 11
3 8 -4 8 0 0 15 -7 11 -16 21 -21 21 -6 0 -10 5 -10 11 0 5 5 7 12 3 8 -5 9
-2 4 12 -5 10 -9 24 -9 31 0 7 -4 10 -9 7 -18 -11 -28 8 -12 24 11 10 13 17 5
20 -6 2 -11 15 -11 28 0 17 -6 24 -19 24 -11 0 -23 5 -27 12 -4 7 -3 8 4 4 7
-4 12 -3 12 2 0 19 -24 77 -34 84 -6 4 -12 12 -12 18 -1 5 -3 13 -4 18 -1 4
-3 12 -4 17 -3 12 -14 41 -29 75 -6 14 -11 31 -12 37 -1 21 -46 89 -68 102
-18 12 -17 10 3 -20z m15 -49 c3 -5 1 -10 -4 -10 -6 0 -11 5 -11 10 0 6 2 10
4 10 3 0 8 -4 11 -10z m81 -142 c4 -7 3 -8 -4 -4 -7 4 -12 3 -12 -3 0 -5 6
-11 13 -14 9 -4 9 -7 0 -17 -10 -11 -14 -10 -19 3 -6 16 0 47 10 47 3 0 8 -5
12 -12z m19 -78 c3 -5 1 -10 -4 -10 -6 0 -11 5 -11 10 0 6 2 10 4 10 3 0 8 -4
11 -10z m-7 -125 c-3 -3 -9 2 -12 12 -6 14 -5 15 5 6 7 -7 10 -15 7 -18z m20
-63 c8 8 15 9 22 2 7 -7 3 -14 -15 -22 -19 -9 -25 -9 -25 0 0 6 -3 8 -7 5 -9
-10 -34 13 -27 25 3 5 13 3 23 -6 13 -12 20 -13 29 -4z m50 -13 c-3 -8 -7 -3
-11 10 -4 17 -3 21 5 13 5 -5 8 -16 6 -23z m-181 -31 c-3 -8 -6 -5 -6 6 -1 11
2 17 5 13 3 -3 4 -12 1 -19z m48 -18 c3 -5 -3 -10 -14 -10 -12 0 -21 5 -21 10
0 6 6 10 14 10 8 0 18 -4 21 -10z m72 -42 c-3 -8 -6 -5 -6 6 -1 11 2 17 5 13
3 -3 4 -12 1 -19z m33 2 c0 -5 -4 -10 -10 -10 -5 0 -10 5 -10 10 0 6 5 10 10
10 6 0 10 -4 10 -10z m-175 -60 c-6 -9 -9 -9 -16 1 -10 17 0 34 13 21 6 -6 7
-16 3 -22z m83 -5 c-3 -3 -9 2 -12 12 -6 14 -5 15 5 6 7 -7 10 -15 7 -18z
m197 -185 c3 -5 1 -10 -4 -10 -6 0 -11 5 -11 10 0 6 2 10 4 10 3 0 8 -4 11
-10z m-82 -27 c-7 -2 -19 -2 -25 0 -7 3 -2 5 12 5 14 0 19 -2 13 -5z m127 -13
c0 -5 -2 -10 -4 -10 -3 0 -8 5 -11 10 -3 6 -1 10 4 10 6 0 11 -4 11 -10z
m-204 -12 c4 -7 3 -8 -4 -4 -7 4 -12 2 -12 -3 0 -6 -4 -11 -10 -11 -5 0 -10 7
-10 15 0 18 26 20 36 3z m182 -46 c2 -7 -2 -10 -12 -6 -9 3 -16 11 -16 16 0
13 23 5 28 -10z"/>
<path d="M2935 2450 c-3 -5 -1 -10 4 -10 6 0 11 5 11 10 0 6 -2 10 -4 10 -3 0
-8 -4 -11 -10z"/>
<path d="M3063 2445 c0 -7 6 -11 14 -8 7 3 13 6 13 8 0 2 -6 5 -13 8 -8 3 -14
-1 -14 -8z"/>
<path d="M4336 2445 c-3 -8 -1 -15 4 -15 6 0 10 7 10 15 0 8 -2 15 -4 15 -2 0
-6 -7 -10 -15z"/>
<path d="M2980 2439 c0 -5 -4 -7 -10 -4 -5 3 -10 1 -10 -4 0 -16 16 -13 30 4
9 10 9 15 1 15 -6 0 -11 -5 -11 -11z"/>
<path d="M2795 2430 c-3 -5 -1 -10 4 -10 6 0 11 5 11 10 0 6 -2 10 -4 10 -3 0
-8 -4 -11 -10z"/>
<path d="M3092 2415 c-21 -22 -20 -35 2 -35 6 0 4 5 -4 10 -13 9 -13 10 0 11
8 1 22 1 30 0 10 0 11 1 3 5 -18 8 -16 25 2 18 8 -4 15 -4 15 -1 0 16 -29 11
-48 -8z"/>
<path d="M2941 2414 c0 -11 3 -14 6 -6 3 7 2 16 -1 19 -3 4 -6 -2 -5 -13z"/>
<path d="M3025 2422 c-6 -4 -11 -15 -13 -24 -4 -23 26 -24 35 -2 7 18 -8 36
-22 26z m15 -22 c0 -5 -5 -10 -11 -10 -5 0 -7 5 -4 10 3 6 8 10 11 10 2 0 4
-4 4 -10z"/>
<path d="M2825 2410 c3 -5 8 -10 11 -10 2 0 4 5 4 10 0 6 -5 10 -11 10 -5 0
-7 -4 -4 -10z"/>
<path d="M3206 2413 c5 -5 12 -12 16 -18 4 -6 8 -2 8 8 0 9 -7 17 -17 17 -9 0
-12 -3 -7 -7z"/>
<path d="M2850 2395 c-7 -9 -8 -15 -2 -15 5 0 12 7 16 15 3 8 4 15 2 15 -2 0
-9 -7 -16 -15z"/>
<path d="M3880 2401 c0 -5 5 -13 10 -16 6 -3 10 -2 10 4 0 5 -4 13 -10 16 -5
3 -10 2 -10 -4z"/>
<path d="M2965 2390 c-3 -5 -1 -10 4 -10 6 0 11 5 11 10 0 6 -2 10 -4 10 -3 0
-8 -4 -11 -10z"/>
<path d="M4342 2368 c7 -24 17 -38 27 -37 11 0 12 2 3 6 -6 2 -10 8 -8 12 3 3
-4 18 -14 31 l-19 25 11 -37z"/>
<path d="M3119 2374 c-7 -9 -22 -20 -34 -24 -19 -9 -19 -9 2 -9 14 -1 23 -9
26 -23 2 -13 3 -8 1 10 -2 28 0 32 15 27 11 -3 21 0 24 9 4 11 1 13 -10 9 -11
-4 -14 -2 -9 5 11 18 1 15 -15 -4z"/>
<path d="M4274 2374 c3 -9 6 -20 6 -25 0 -4 6 -6 14 -3 18 7 9 44 -11 44 -10
0 -13 -6 -9 -16z"/>
<path d="M2340 2372 c0 -5 8 -16 18 -25 16 -14 17 -14 17 9 0 16 -6 24 -17 24
-10 0 -18 -4 -18 -8z"/>
<path d="M2447 2360 c10 -11 19 -20 21 -20 1 0 -2 9 -8 20 -6 11 -15 20 -20
20 -6 0 -2 -9 7 -20z"/>
<path d="M3910 2364 c0 -8 5 -12 10 -9 6 4 8 11 5 16 -9 14 -15 11 -15 -7z"/>
<path d="M2510 2360 c-8 -5 -11 -13 -6 -17 5 -4 11 -3 13 4 2 7 11 9 20 6 11
-4 14 -2 9 5 -9 14 -16 15 -36 2z"/>
<path d="M2606 2361 c-4 -5 -2 -12 3 -15 5 -4 12 -2 15 3 4 5 2 12 -3 15 -5 4
-12 2 -15 -3z"/>
<path d="M2907 2354 c6 -15 23 -19 23 -5 0 5 -7 11 -14 14 -10 4 -13 1 -9 -9z"/>
<path d="M2945 2359 c-4 -5 4 -9 16 -9 18 0 19 -2 9 -15 -7 -9 -15 -13 -18
-10 -3 3 -12 -4 -19 -15 -8 -11 -19 -17 -25 -14 -7 4 -8 2 -4 -4 9 -15 36 -4
62 25 23 24 57 23 47 -3 -3 -8 0 -14 6 -14 12 0 14 20 3 36 -11 16 -71 34 -77
23z"/>
<path d="M3793 2351 c1 -15 4 -17 14 -10 15 13 33 3 33 -17 0 -8 10 -14 24
-14 20 0 41 -22 38 -40 0 -3 9 -7 21 -7 15 -2 18 0 8 6 -9 6 -10 11 -3 15 6 4
9 13 5 21 -3 8 0 15 6 15 6 0 11 5 11 10 0 6 -7 6 -19 -1 -15 -10 -22 -8 -40
10 -11 11 -32 21 -45 21 -13 0 -31 3 -40 6 -10 4 -14 0 -13 -15z m76 -22 c-16
-10 -23 -4 -14 10 3 6 11 8 17 5 6 -4 5 -9 -3 -15z"/>
<path d="M4004 2362 c4 -7 4 -12 -1 -12 -4 0 -20 -10 -34 -23 -27 -23 -29 -50
-2 -40 9 4 14 2 10 -3 -3 -6 4 -11 16 -11 18 -2 19 0 7 8 -11 8 -12 12 -2 16
6 2 12 11 12 19 0 9 -4 12 -10 9 -17 -10 -11 7 7 20 13 9 13 14 3 20 -9 5 -11
4 -6 -3z"/>
<path d="M4030 2345 c-14 -38 -12 -43 6 -16 13 18 18 20 26 10 7 -11 8 -9 6 5
-5 30 -27 31 -38 1z"/>
<path d="M4181 2354 c0 -11 3 -14 6 -6 3 7 2 16 -1 19 -3 4 -6 -2 -5 -13z"/>
<path d="M2300 2350 c0 -5 5 -10 10 -10 6 0 10 5 10 10 0 6 -4 10 -10 10 -5 0
-10 -4 -10 -10z"/>
<path d="M2443 2328 c3 -9 1 -18 -5 -20 -6 -2 -9 -9 -7 -16 3 -8 8 -6 16 6 7
13 8 23 1 33 -8 11 -9 11 -5 -3z"/>
<path d="M2847 2324 c3 -7 9 -14 14 -14 14 0 10 17 -5 23 -10 4 -13 1 -9 -9z"/>
<path d="M4295 2329 c-4 -6 -5 -12 -2 -15 2 -3 7 2 10 11 7 17 1 20 -8 4z"/>
<path d="M2650 2315 c7 -8 17 -12 22 -9 6 4 5 10 -3 15 -22 14 -33 10 -19 -6z"/>
<path d="M2780 2319 c0 -5 -4 -7 -10 -4 -5 3 -10 1 -10 -4 0 -6 7 -11 15 -11
8 0 15 7 15 15 0 8 -2 15 -5 15 -3 0 -5 -5 -5 -11z"/>
<path d="M2810 2315 c-10 -13 -9 -15 11 -14 13 0 18 3 11 6 -6 2 -10 9 -6 14
9 15 -2 10 -16 -6z"/>
<path d="M3060 2305 c0 -14 4 -25 8 -25 4 0 9 11 10 25 1 14 -3 25 -8 25 -6 0
-10 -11 -10 -25z"/>
<path d="M4580 2318 c0 -9 5 -20 10 -23 13 -8 13 5 0 25 -8 13 -10 13 -10 -2z"/>
<path d="M2585 2299 c-4 -6 -4 -13 -1 -16 3 -4 6 -1 6 6 0 7 5 9 12 5 7 -4 8
-3 4 4 -9 15 -13 15 -21 1z"/>
<path d="M2685 2290 c-3 -5 1 -10 10 -10 9 0 13 5 10 10 -3 6 -8 10 -10 10 -2
0 -7 -4 -10 -10z"/>
<path d="M2509 2273 c-13 -16 -12 -17 4 -4 9 7 17 15 17 17 0 8 -8 3 -21 -13z"/>
<path d="M2780 2286 c0 -2 7 -7 16 -10 8 -3 12 -2 9 4 -6 10 -25 14 -25 6z"/>
<path d="M2870 2286 c0 -2 7 -7 16 -10 8 -3 12 -2 9 4 -6 10 -25 14 -25 6z"/>
<path d="M1441 2238 c-2 -86 37 -126 66 -68 11 21 13 22 13 6 0 -11 2 -17 5
-14 3 3 1 23 -4 44 -5 21 -10 30 -10 19 -1 -17 -3 -17 -11 -5 -5 8 -17 15 -27
15 -10 0 -20 11 -24 25 -5 19 -7 14 -8 -22z"/>
<path d="M2460 2265 c-8 -9 -8 -15 -2 -15 12 0 26 19 19 26 -2 2 -10 -2 -17
-11z"/>
<path d="M2928 2260 c-19 -18 -25 -70 -7 -70 5 0 7 5 3 12 -4 7 -3 8 4 4 7 -4
12 -13 12 -21 0 -15 25 -14 41 2 8 8 8 13 0 17 -6 4 -11 0 -11 -11 -1 -17 -1
-17 -11 0 -11 19 -3 41 12 32 5 -4 9 -2 9 4 0 5 -6 12 -12 14 -10 4 -10 6 0 6
18 1 15 18 -5 23 -10 3 -26 -3 -35 -12z m8 -25 c-9 -9 -16 -13 -16 -8 0 12 22
34 28 28 2 -2 -3 -11 -12 -20z"/>
<path d="M3117 2274 c-3 -4 1 -13 11 -20 23 -18 33 -17 26 1 -4 8 -10 13 -14
10 -5 -3 -10 0 -12 6 -2 5 -7 7 -11 3z"/>
<path d="M2530 2259 c-12 -8 -11 -9 5 -7 15 2 19 -2 17 -16 -3 -17 -2 -18 12
-7 12 11 14 17 5 27 -14 17 -19 17 -39 3z"/>
<path d="M2730 2260 c-12 -7 -10 -9 7 -7 12 0 19 5 17 9 -6 10 -6 10 -24 -2z"/>
<path d="M2790 2245 c-7 -9 -11 -17 -9 -20 3 -2 10 5 17 15 14 24 10 26 -8 5z"/>
<path d="M2820 2250 c0 -5 5 -10 10 -10 6 0 10 5 10 10 0 6 -4 10 -10 10 -5 0
-10 -4 -10 -10z"/>
<path d="M3820 2244 c0 -8 5 -12 10 -9 6 3 10 10 10 16 0 5 -4 9 -10 9 -5 0
-10 -7 -10 -16z"/>
<path d="M3995 2250 c-3 -5 -1 -10 4 -10 6 0 11 5 11 10 0 6 -2 10 -4 10 -3 0
-8 -4 -11 -10z"/>
<path d="M2470 2239 c-12 -8 -12 -9 5 -7 11 1 26 -1 33 -5 6 -5 12 -4 12 1 0
6 -7 13 -16 16 -19 7 -16 8 -34 -5z"/>
<path d="M2650 2240 c0 -5 7 -7 15 -4 8 4 15 8 15 10 0 2 -7 4 -15 4 -8 0 -15
-4 -15 -10z"/>
<path d="M3010 2235 c0 -8 4 -15 8 -15 5 0 9 7 9 15 0 8 -4 15 -9 15 -4 0 -8
-7 -8 -15z"/>
<path d="M1032 2229 c2 -6 8 -10 13 -10 5 0 11 4 13 10 2 6 -4 11 -13 11 -9 0
-15 -5 -13 -11z"/>
<path d="M3736 2201 c5 -41 14 -55 14 -22 0 12 4 19 10 16 16 -10 50 5 50 23
0 13 -2 13 -15 -4 -12 -16 -14 -16 -15 -3 0 10 -11 19 -24 21 -22 5 -24 2 -20
-31z"/>
<path d="M2706 2215 c4 -8 10 -12 15 -9 11 6 2 24 -11 24 -5 0 -7 -7 -4 -15z"/>
<path d="M2870 2220 c0 -5 5 -10 11 -10 5 0 7 5 4 10 -3 6 -8 10 -11 10 -2 0
-4 -4 -4 -10z"/>
<path d="M2650 2209 c0 -5 5 -7 10 -4 6 3 10 8 10 11 0 2 -4 4 -10 4 -5 0 -10
-5 -10 -11z"/>
<path d="M3864 2198 c3 -13 6 -31 6 -41 0 -10 4 -16 9 -12 12 7 10 45 -2 45
-5 0 -7 7 -3 15 3 8 0 15 -5 15 -7 0 -9 -9 -5 -22z"/>
<path d="M4258 2213 c7 -3 16 -2 19 1 4 3 -2 6 -13 5 -11 0 -14 -3 -6 -6z"/>
<path d="M4290 2216 c0 -2 9 -6 20 -9 11 -3 18 -1 14 4 -5 9 -34 13 -34 5z"/>
<path d="M3655 2200 c-3 -5 -4 -14 -1 -18 3 -5 -9 -9 -25 -9 -17 0 -34 -5 -38
-12 -5 -7 -11 -12 -15 -12 -20 3 -24 -2 -22 -24 3 -32 16 -45 16 -17 0 15 6
22 20 22 11 0 20 -6 20 -14 0 -7 9 -16 20 -19 11 -3 20 -13 20 -23 0 -16 -1
-16 -20 1 -12 11 -28 20 -37 21 -12 2 -14 -5 -8 -44 4 -25 14 -52 23 -60 10
-7 11 -10 3 -6 -10 5 -12 3 -6 -5 5 -9 10 -10 18 -2 19 19 23 12 19 -26 -3
-27 0 -40 14 -50 10 -7 12 -13 6 -13 -7 0 -12 -11 -12 -25 0 -14 5 -25 10 -25
6 0 23 -12 37 -27 14 -16 29 -27 34 -25 9 2 13 -12 10 -34 -1 -6 18 -14 41
-17 23 -3 44 -11 46 -16 2 -6 11 -11 19 -11 9 0 24 -10 34 -22 22 -25 24 -32
7 -22 -7 4 -5 -2 6 -14 11 -12 16 -28 12 -38 -4 -12 -2 -15 9 -10 10 3 15 -1
16 -14 3 -41 5 -45 27 -43 13 2 21 -1 18 -6 -4 -5 2 -8 11 -6 10 2 21 4 24 4
12 2 17 41 6 41 -6 0 -8 3 -5 6 4 3 25 -8 49 -25 23 -17 38 -31 32 -31 -5 0
-9 -12 -9 -27 1 -42 67 -72 80 -37 4 10 13 13 27 9 16 -5 20 -3 17 11 -2 9 3
19 11 22 10 3 12 -1 8 -17 -3 -11 -1 -24 4 -27 5 -3 9 4 9 15 0 21 17 37 27
27 4 -4 1 -12 -5 -18 -31 -31 -1 -77 50 -78 15 0 29 -4 33 -10 7 -12 108 -2
116 12 4 6 15 5 29 -4 18 -10 24 -10 27 0 3 6 9 10 14 7 5 -4 6 1 3 9 -4 9 0
18 10 22 12 5 13 11 6 24 -17 32 -12 45 10 25 17 -15 20 -16 15 -3 -4 9 -2 19
4 23 6 3 11 -1 11 -9 0 -9 3 -15 8 -14 4 1 18 -4 30 -11 25 -13 38 -9 28 8 -4
6 -14 8 -24 5 -14 -4 -13 -3 2 7 15 9 20 9 28 -5 11 -19 42 -22 33 -3 -4 6 -1
5 7 -3 16 -18 38 -24 38 -10 0 6 -7 10 -16 10 -8 0 -12 5 -9 10 3 6 -1 10 -9
10 -9 0 -16 7 -16 15 0 8 4 15 9 15 5 0 11 14 13 30 3 17 0 30 -6 30 -27 1
-38 17 -27 39 7 12 16 19 20 16 5 -3 12 2 15 11 3 8 2 13 -3 10 -5 -3 -11 1
-15 9 -3 8 -1 15 5 15 6 0 8 4 5 9 -4 5 0 11 6 14 10 3 10 8 -1 18 -8 8 -11 9
-8 3 9 -16 -17 -36 -36 -28 -10 4 -14 16 -13 40 2 24 -1 34 -11 34 -10 0 -13
7 -9 23 3 12 3 16 0 10 -4 -9 -11 -10 -23 -3 -10 5 -22 6 -26 2 -4 -4 0 7 9
25 15 31 15 32 -6 47 -12 9 -18 16 -13 16 6 0 15 11 22 25 6 14 7 25 2 25 -4
0 -6 7 -3 15 7 17 -14 48 -26 40 -8 -5 -20 30 -25 71 -5 36 -25 64 -45 64 -24
0 -37 20 -19 31 18 11 0 10 -26 -1 -13 -6 -15 -9 -5 -9 13 -1 13 -3 1 -10 -8
-5 -14 -23 -14 -41 0 -20 -3 -26 -9 -18 -6 10 -8 10 -9 -2 -1 -8 -1 -19 0 -24
1 -5 -4 -13 -11 -17 -9 -6 -9 -9 -1 -9 12 0 12 -17 0 -37 -4 -6 -3 -14 2 -17
13 -8 7 -54 -8 -69 -10 -9 -14 -9 -21 3 -23 38 -29 43 -56 43 -16 0 -33 -8
-39 -18 -5 -9 -20 -29 -32 -43 -22 -26 -23 -26 -18 -4 5 26 -12 30 -17 5 -3
-13 -6 -10 -10 9 -3 15 -1 25 3 22 5 -3 9 6 9 20 0 14 -5 26 -11 26 -5 0 -7
-5 -3 -11 4 -8 -1 -9 -15 -4 -16 5 -22 3 -20 -7 4 -31 -2 -59 -11 -53 -5 3
-10 -3 -10 -13 0 -13 10 -24 30 -31 33 -11 42 -26 10 -16 -32 10 -25 -30 10
-63 36 -35 38 -45 8 -40 -13 2 -22 8 -21 15 1 6 -7 19 -17 28 -11 10 -20 24
-20 32 0 8 -7 28 -16 44 -11 23 -18 28 -28 20 -10 -9 -13 -2 -12 32 1 23 6 45
11 50 6 4 4 11 -5 17 -21 14 -33 12 -24 -2 11 -17 12 -48 3 -53 -4 -3 -5 -14
-2 -26 4 -12 0 -25 -7 -29 -11 -7 -11 -14 -2 -34 11 -24 10 -25 -12 -16 -19 7
-25 5 -30 -8 -3 -9 -11 -24 -18 -34 -9 -13 -9 -20 2 -32 7 -9 15 -14 18 -11 3
2 -1 11 -7 19 -9 10 -9 16 -1 21 16 10 24 -2 26 -35 1 -26 -1 -28 -18 -19 -14
8 -24 7 -35 -3 -15 -12 -16 -10 -9 15 5 22 4 28 -6 24 -7 -2 -12 -9 -11 -15 1
-5 -7 -8 -18 -5 -15 4 -18 11 -13 27 8 28 8 28 0 49 -5 9 -15 17 -22 17 -8 0
-20 11 -26 25 -6 14 -18 25 -27 25 -11 0 -16 10 -17 30 -1 37 -12 50 -24 30
-14 -23 -20 5 -17 71 l3 57 -22 -17 c-16 -11 -18 -17 -8 -19 8 -2 14 -11 13
-20 0 -10 -3 -12 -5 -5 -7 16 -34 5 -34 -13 0 -8 -7 -14 -15 -14 -11 0 -13 8
-8 33 3 17 12 36 19 40 10 6 11 13 2 32 -13 29 -30 33 -27 8 3 -35 -1 -45 -16
-39 -8 3 -15 1 -15 -5 0 -6 -4 -8 -9 -4 -6 3 -4 17 5 33 12 24 12 28 -1 38
-16 12 -21 29 -6 20 5 -3 11 0 14 8 3 8 -1 17 -9 20 -9 3 -13 10 -9 15 3 5 1
12 -4 15 -5 4 -12 2 -16 -4z m872 -105 c0 -8 -7 -15 -15 -15 -12 0 -12 3 -2
15 7 8 13 15 15 15 1 0 2 -7 2 -15z m-862 -75 c3 -5 1 -10 -4 -10 -6 0 -11 5
-11 10 0 6 2 10 4 10 3 0 8 -4 11 -10z m25 -72 c0 -17 -23 -3 -26 16 -2 14 0
15 12 5 8 -6 14 -16 14 -21z m97 10 c-3 -8 -6 -5 -6 6 -1 11 2 17 5 13 3 -3 4
-12 1 -19z m703 -38 c0 -5 -5 -10 -11 -10 -5 0 -7 5 -4 10 3 6 8 10 11 10 2 0
4 -4 4 -10z m-720 -15 c0 -8 -4 -15 -8 -15 -5 0 -9 7 -9 15 0 8 4 15 9 15 4 0
8 -7 8 -15z m-12 -60 c-3 -3 -9 2 -12 12 -6 14 -5 15 5 6 7 -7 10 -15 7 -18z
m77 15 c3 -5 2 -10 -4 -10 -5 0 -13 5 -16 10 -3 6 -2 10 4 10 5 0 13 -4 16
-10z m430 0 c3 -5 1 -10 -4 -10 -6 0 -11 5 -11 10 0 6 2 10 4 10 3 0 8 -4 11
-10z m-333 -54 c7 4 8 2 4 -5 -9 -13 -26 -5 -25 12 0 9 2 8 6 -1 2 -6 10 -9
15 -6z m143 -46 c-4 -12 -9 -19 -12 -17 -3 3 -2 15 2 27 4 12 9 19 12 17 3 -3
2 -15 -2 -27z m235 20 c0 -5 -7 -7 -15 -4 -8 4 -15 8 -15 10 0 2 7 4 15 4 8 0
15 -4 15 -10z m-450 -25 c0 -8 -9 -15 -20 -15 -22 0 -27 15 -7 23 21 9 27 7
27 -8z m35 -24 c3 -5 1 -12 -5 -16 -5 -3 -10 1 -10 9 0 18 6 21 15 7z m35 -21
c0 -6 11 -22 25 -36 14 -14 33 -37 42 -52 l17 -27 -25 23 c-14 12 -31 22 -37
22 -7 0 -12 7 -12 15 0 9 -7 27 -16 40 -10 15 -12 25 -5 25 6 0 11 -5 11 -10z
m290 0 c0 -5 -2 -10 -4 -10 -3 0 -8 5 -11 10 -3 6 -1 10 4 10 6 0 11 -4 11
-10z m-105 -28 c-3 -3 -11 0 -18 7 -9 10 -8 11 6 5 10 -3 15 -9 12 -12z m289
-18 c3 -8 1 -14 -4 -14 -6 0 -10 -10 -10 -22 0 -31 -6 -19 -13 24 -4 28 -2 36
8 32 7 -3 16 -12 19 -20z m84 -10 c-10 -10 -28 6 -28 24 0 15 1 15 17 -1 9 -9
14 -19 11 -23z m-294 -10 c3 -8 1 -24 -4 -35 -14 -26 -23 -24 -14 3 6 21 5 21
-10 9 -13 -11 -20 -11 -28 -3 -9 9 -7 12 10 12 13 0 22 6 22 15 0 20 16 19 24
-1z m432 -10 c-5 -14 -9 -15 -19 -5 -9 9 -9 14 3 21 18 11 24 6 16 -16z m-162
-14 c5 -5 6 -20 2 -34 -5 -19 -11 -24 -24 -19 -27 11 -41 29 -39 51 1 16 6 19
27 15 14 -2 29 -8 34 -13z m61 -2 c-6 -17 -4 -20 11 -14 18 6 18 5 1 -8 -10
-8 -15 -20 -11 -30 9 -23 -9 -20 -24 4 -8 13 -9 20 -1 20 6 0 8 9 4 21 -5 15
-4 19 4 15 6 -4 11 -2 11 3 0 6 3 11 6 11 3 0 2 -10 -1 -22z m-416 -34 c-15
-18 -22 -13 -13 10 3 9 10 13 16 10 5 -3 4 -12 -3 -20z m114 -9 c-3 -9 -8 -14
-10 -11 -3 3 -2 9 2 15 9 16 15 13 8 -4z m335 -20 c-3 -3 -9 2 -12 12 -6 14
-5 15 5 6 7 -7 10 -15 7 -18z m-548 6 c0 -6 -4 -13 -10 -16 -5 -3 -10 1 -10 9
0 9 5 16 10 16 6 0 10 -4 10 -9z"/>
<path d="M4410 1609 c0 -5 5 -7 10 -4 6 3 10 8 10 11 0 2 -4 4 -10 4 -5 0 -10
-5 -10 -11z"/>
<path d="M990 2188 c0 -22 13 -23 30 -3 9 10 9 15 1 15 -6 0 -11 -6 -11 -12 0
-9 -4 -8 -10 2 -8 13 -10 12 -10 -2z"/>
<path d="M2690 2179 c0 -13 28 -18 33 -6 3 7 -3 13 -14 13 -11 0 -19 -3 -19
-7z"/>
<path d="M3797 2183 c-13 -13 -7 -43 13 -60 11 -10 20 -25 20 -35 0 -10 5 -18
11 -18 5 0 8 -4 5 -8 -3 -5 1 -9 9 -9 10 0 14 11 13 34 -1 24 -5 32 -15 29 -7
-3 -13 1 -13 9 0 8 -8 15 -18 15 -23 0 -26 37 -4 43 14 4 15 5 1 6 -9 0 -19
-2 -22 -6z"/>
<path d="M4282 2165 c-16 -34 -15 -35 6 -35 14 0 19 8 19 30 0 37 -10 38 -25
5z"/>
<path d="M4794 2178 c-4 -6 -3 -8 3 -5 5 4 16 -5 23 -18 7 -14 17 -25 22 -25
4 0 8 -9 8 -21 0 -11 4 -18 9 -15 5 4 8 12 6 19 -10 39 -18 56 -26 51 -5 -3
-12 2 -15 10 -7 19 -20 21 -30 4z"/>
<path d="M4166 2167 c-25 -18 -17 -51 14 -55 14 -2 22 -1 18 4 -4 4 -3 13 4
21 9 11 8 17 -3 29 -13 12 -18 12 -33 1z m14 -23 c0 -8 -5 -12 -10 -9 -6 4 -8
11 -5 16 9 14 15 11 15 -7z"/>
<path d="M2890 2160 c0 -5 5 -10 10 -10 6 0 10 5 10 10 0 6 -4 10 -10 10 -5 0
-10 -4 -10 -10z"/>
<path d="M2653 2146 c3 -8 -1 -20 -9 -26 -8 -7 -14 -18 -14 -24 0 -6 9 0 20
14 10 14 22 21 27 17 4 -5 1 -12 -6 -16 -9 -6 -10 -11 -2 -15 20 -13 12 -28
-11 -20 -19 6 -20 5 -7 -8 23 -23 49 -19 40 6 -12 30 -3 50 15 35 17 -14 19
-43 2 -33 -7 5 -8 3 -3 -5 12 -21 28 4 19 30 -4 13 -7 27 -6 30 1 4 -7 5 -18
2 -12 -3 -22 1 -26 11 -3 9 -11 16 -16 16 -6 0 -8 -6 -5 -14z"/>
<path d="M4095 2135 c4 -11 8 -31 8 -44 -1 -15 2 -19 7 -12 4 7 11 12 15 12 5
-1 10 5 11 14 1 8 -2 15 -6 15 -5 0 -17 8 -26 18 -17 16 -17 16 -9 -3z"/>
<path d="M2840 2120 c0 -13 7 -20 20 -20 12 0 20 7 20 16 0 14 -2 15 -17 3
-15 -12 -16 -12 -10 4 3 9 2 17 -3 17 -6 0 -10 -9 -10 -20z"/>
<path d="M3740 2133 c0 -3 4 -12 10 -22 12 -23 41 -36 33 -15 -3 7 -9 14 -14
14 -4 0 -6 6 -3 13 3 8 -2 14 -11 14 -8 0 -15 -2 -15 -4z"/>
<path d="M4703 2125 c4 -8 2 -17 -3 -20 -6 -4 -10 1 -10 10 0 9 -5 13 -11 10
-7 -5 -6 -12 4 -23 8 -10 17 -29 21 -44 4 -17 13 -28 24 -29 10 0 12 -3 5 -6
-7 -2 -13 -9 -13 -14 0 -6 5 -7 10 -4 6 3 10 -3 10 -15 0 -21 0 -21 21 -1 16
14 20 27 15 45 -4 15 -1 28 6 32 9 6 5 10 -12 14 -15 4 -25 13 -25 24 0 11
-11 23 -24 27 -18 7 -22 6 -18 -6z m55 -67 c-5 -15 -36 -19 -45 -6 -3 6 -2 8
3 5 6 -3 16 -2 24 4 20 12 22 11 18 -3z"/>
<path d="M4225 2077 c5 -24 2 -37 -12 -49 -17 -16 -22 -18 -40 -18 -5 0 -2 -4
6 -9 14 -9 71 17 71 32 0 5 -5 5 -12 1 -7 -4 -8 -3 -4 5 4 6 11 9 16 6 5 -3
14 4 20 15 6 12 16 18 23 14 9 -5 9 -4 1 5 -6 6 -25 16 -43 21 -32 9 -32 9
-26 -23z"/>
<path d="M4076 2028 c-10 -11 -12 -18 -5 -14 8 3 22 9 32 12 9 4 17 10 17 15
0 15 -24 8 -44 -13z"/>
<path d="M3910 2022 c0 -5 7 -9 15 -9 8 0 12 4 9 9 -3 4 -9 8 -15 8 -5 0 -9
-4 -9 -8z"/>
<path d="M4364 2018 c-4 -6 -3 -8 4 -4 6 3 13 -2 15 -11 4 -14 5 -13 6 5 1 23
-13 30 -25 10z"/>
<path d="M2643 1983 c-7 -3 -13 -18 -13 -34 0 -22 5 -29 20 -29 15 0 20 7 20
29 0 32 -7 41 -27 34z"/>
<path d="M2699 1983 c-7 -42 -3 -63 12 -63 13 0 17 9 17 35 0 23 -5 35 -14 35
-8 0 -15 -3 -15 -7z"/>
<path d="M2800 1981 c0 -6 5 -13 10 -16 6 -3 10 1 10 9 0 9 -4 16 -10 16 -5 0
-10 -4 -10 -9z"/>
<path d="M3860 1950 c0 -5 5 -10 10 -10 6 0 10 5 10 10 0 6 -4 10 -10 10 -5 0
-10 -4 -10 -10z"/>
<path d="M3900 1933 c14 -22 37 -26 37 -6 0 7 -4 13 -8 13 -4 0 -15 3 -24 6
-15 6 -15 4 -5 -13z"/>
<path d="M3370 1927 c0 -19 10 -27 26 -20 21 8 17 33 -6 33 -11 0 -20 -6 -20
-13z"/>
<path d="M4012 1926 c7 -8 15 -12 17 -11 5 6 -10 25 -20 25 -5 0 -4 -6 3 -14z"/>
<path d="M3886 1922 c-2 -4 -1 -14 5 -22 7 -12 9 -10 9 8 0 23 -5 28 -14 14z"/>
<path d="M780 1740 c0 -5 5 -10 11 -10 5 0 7 5 4 10 -3 6 -8 10 -11 10 -2 0
-4 -4 -4 -10z"/>
<path d="M917 1706 c-3 -8 0 -17 7 -19 10 -4 12 1 9 14 -6 23 -9 24 -16 5z"/>
<path d="M874 1692 c3 -6 -1 -15 -11 -20 -17 -10 -27 -42 -13 -42 17 0 17 -40
0 -55 -18 -16 -46 -12 -35 5 3 4 -2 10 -10 13 -8 4 -16 -2 -20 -14 -4 -10 -11
-19 -16 -19 -13 0 -11 18 4 23 7 3 5 6 -5 6 -10 1 -18 -3 -18 -7 0 -5 -11 -14
-25 -20 -14 -6 -25 -16 -25 -22 0 -7 7 -7 21 1 13 6 19 7 15 1 -3 -6 -3 -12 1
-15 5 -2 2 -2 -6 0 -11 3 -12 1 -1 -12 9 -11 16 -13 24 -5 13 13 26 13 26 -1
0 -5 -5 -7 -11 -3 -8 5 -10 -1 -7 -18 4 -22 2 -24 -24 -20 -23 4 -27 1 -22
-12 4 -9 9 -15 12 -12 7 8 43 -35 37 -44 -6 -10 131 -64 210 -84 182 -45 327
-57 510 -44 85 6 153 16 157 22 5 7 -14 15 -54 24 -50 10 -63 10 -70 0 -6 -10
-8 -10 -8 0 0 7 -5 10 -10 7 -6 -4 -9 -1 -8 5 2 6 -16 19 -38 28 -23 9 -48 22
-55 28 -21 17 -63 29 -55 15 4 -6 2 -11 -4 -11 -7 0 -10 6 -7 14 8 20 -26 48
-48 40 -12 -5 -16 -4 -11 4 11 18 -52 82 -81 82 -20 0 -23 3 -15 13 8 10 5 20
-14 42 -13 15 -27 25 -31 21 -4 -4 -3 -10 3 -14 6 -4 14 -19 17 -34 6 -23 4
-25 -13 -21 -11 3 -20 9 -20 13 0 12 -58 33 -70 25 -7 -4 -9 1 -5 17 5 20 1
25 -29 34 -32 10 -34 9 -25 -7 7 -14 5 -21 -11 -29 -15 -8 -18 -8 -14 3 4 10
-5 14 -36 13 -23 -1 -44 2 -46 6 -3 5 -2 8 3 8 14 0 9 73 -6 78 -8 3 -11 0 -7
-6z m96 -132 c0 -5 -5 -10 -11 -10 -5 0 -7 5 -4 10 3 6 8 10 11 10 2 0 4 -4 4
-10z m-30 -29 c0 -11 -6 -23 -12 -27 -7 -4 -10 -4 -6 1 4 4 0 14 -10 22 -16
12 -16 13 2 6 13 -4 17 -3 12 5 -4 7 -2 12 3 12 6 0 11 -9 11 -19z m-32 -32
c10 -14 10 -18 -5 -23 -10 -4 -14 -4 -11 0 4 3 0 13 -8 22 -14 13 -17 13 -25
1 -7 -12 -9 -11 -9 2 0 8 5 20 11 26 12 12 18 9 47 -28z m352 -49 c0 -5 -4
-10 -9 -10 -6 0 -13 5 -16 10 -3 6 1 10 9 10 9 0 16 -4 16 -10z m295 -140 c3
-5 1 -10 -4 -10 -6 0 -11 5 -11 10 0 6 2 10 4 10 3 0 8 -4 11 -10z"/>
<path d="M1040 1651 c0 -5 7 -12 16 -15 14 -5 15 -4 4 9 -14 17 -20 19 -20 6z"/>
<path d="M785 1620 c3 -5 8 -10 11 -10 2 0 4 5 4 10 0 6 -5 10 -11 10 -5 0 -7
-4 -4 -10z"/>
<path d="M821 1611 c-9 -6 -7 -10 8 -14 12 -3 21 -1 21 3 0 14 -15 19 -29 11z"/>
<path d="M1095 1590 c3 -5 8 -10 11 -10 2 0 4 5 4 10 0 6 -5 10 -11 10 -5 0
-7 -4 -4 -10z"/>
<path d="M4020 1518 c0 -4 4 -8 9 -8 6 0 12 4 15 8 3 5 -1 9 -9 9 -8 0 -15 -4
-15 -9z"/>
<path d="M4175 1459 c-10 -15 3 -25 16 -12 7 7 7 13 1 17 -6 3 -14 1 -17 -5z"/>
<path d="M5220 1330 l-25 -8 25 -1 c20 -1 22 -3 10 -11 -20 -13 -4 -13 21 0
21 12 26 31 7 29 -7 -1 -24 -5 -38 -9z"/>
</g>
</svg>
